<?xml version="1.0" encoding="utf-8"?>
<!-- Generator: Adobe Illustrator 20.1.0, SVG Export Plug-In . SVG Version: 6.00 Build 0)  -->
<svg version="1.1" id="Layer_1" xmlns="http://www.w3.org/2000/svg" xmlns:xlink="http://www.w3.org/1999/xlink" x="0px" y="0px"
	 viewBox="0 0 80.7 32.9" style="enable-background:new 0 0 80.7 32.9;" xml:space="preserve">
<g>
	<g>
		<g>
			<g>
				<g>
					<path d="M44.1,32.5c-0.1,0,0.1,0.4,0.1,0.4C44.3,32.8,44.1,32.4,44.1,32.5z"/>
					<polygon points="44.6,31.2 44.7,31.4 44.7,31 					"/>
					<path d="M45.5,30.9c-0.4-0.6-0.3,0.2-0.5,0.1l-0.1-0.1l0.2,0.6C45.2,31.2,45.3,30.7,45.5,30.9z"/>
					<path d="M46.5,32.1c-0.1-0.2,0-0.3-0.1,0C46.4,32.1,46.4,32.1,46.5,32.1C46.5,32.1,46.5,32.1,46.5,32.1z"/>
					<path d="M46.5,32.1C46.4,32.2,46.6,32.3,46.5,32.1L46.5,32.1z"/>
					<path d="M46.8,31.8l0,0.3c0.1,0.1,0.2,0.1,0.2,0.3C47.1,32.1,47,32,46.8,31.8z"/>
					<path d="M46.7,31.3l0,0.1C46.7,31.4,46.7,31.5,46.7,31.3z"/>
					<path d="M46.6,31.6l0-0.3c-0.1-0.1-0.2-0.3,0,0.1C46.6,31.3,46.6,31.5,46.6,31.6z"/>
					<path d="M46.5,31.6c-0.1-0.1-0.3-0.2-0.2-0.4C46.1,31.3,46.3,31.8,46.5,31.6z"/>
					<path d="M45.2,30.2L45.1,30l0,0.3C45.1,30.2,45.3,30.4,45.2,30.2z"/>
					<path d="M47.7,31.8c-0.1-0.1-0.2-0.4-0.3-0.5l0,0.2C47.5,31.6,47.6,31.6,47.7,31.8z"/>
					<path d="M47.4,31.3l0-0.3C47.3,31,47.3,31.1,47.4,31.3z"/>
					<polygon points="46.4,30.5 46.4,31.1 46.4,30.5 					"/>
					<polygon points="48.2,31.6 48.2,32 48.2,31.4 					"/>
					<path d="M48.5,31.4c0.1,0.3,0.3,0.4,0.3,0.6c0.1-0.1,0-0.3,0-0.6C48.8,31.6,48.7,31.6,48.5,31.4z"/>
					<path d="M48.8,31.1c0,0.1,0,0.2,0,0.4C48.8,31.4,48.8,31.2,48.8,31.1z"/>
					<path d="M47.7,31c0,0.1,0.2,0.3,0.3,0.4L47.7,31C47.7,30.9,47.7,30.9,47.7,31z"/>
					<path d="M47.7,30.9L47.7,30.9c0.1,0,0.1,0,0.1,0C47.8,30.9,47.8,30.9,47.7,30.9z"/>
					<path d="M47.6,31C47.6,31,47.6,31,47.6,31C47.6,30.9,47.6,30.9,47.6,31z"/>
					<path d="M46.9,30.7c0-0.3,0-0.6-0.3-0.8C46.7,30.2,46.9,30.4,46.9,30.7z"/>
					<path d="M47.4,30.5l-0.2,0c0,0.1,0.1,0.2,0.1,0.4L47.4,30.5z"/>
					<polygon points="47.4,30.3 47.4,30.5 47.4,30.5 					"/>
					<path d="M48.4,30.8c0-0.2,0-0.2,0.1-0.3c-0.1,0-0.2,0-0.3,0C48.2,30.6,48.3,30.9,48.4,30.8z"/>
					<path d="M48,30.8C48,30.8,48,30.8,48,30.8C48,30.8,48,30.8,48,30.8z"/>
					<path d="M49.2,30.2C49.2,30.2,49.2,30.2,49.2,30.2C49.2,30.2,49.2,30.2,49.2,30.2L49.2,30.2z"/>
					<path d="M48.1,30.4c-0.1,0-0.1,0.1-0.1,0.2C48.1,30.6,48.1,30.5,48.1,30.4C48.2,30.4,48.1,30.4,48.1,30.4z"/>
					<path d="M48.9,30.8c-0.1-0.1-0.1-0.1-0.2-0.2C48.8,30.8,48.9,30.9,48.9,30.8z"/>
					<path d="M48.1,30.9C48.1,30.9,48.1,30.9,48.1,30.9C48.2,31,48.1,31,48.1,30.9z"/>
					<path d="M48.1,30.9c0-0.1,0-0.2,0-0.3C48,30.7,48,30.7,48.1,30.9C48,30.8,48.1,30.9,48.1,30.9z"/>
					<path d="M48.3,27.6c0.1,0.4,0.1,0.8-0.2,0.4c0,0.3,0.6,1.5,1,2.1c-0.1-0.2-0.1-0.3-0.1-0.6c-0.1-0.2-0.5-0.3-0.5-0.7
						c0.1-0.3,0.2,0.1,0.4,0.2c-0.3-0.4-0.1-0.8-0.4-1.4L48.4,28C48.4,27.9,48.4,27.7,48.3,27.6z"/>
					<path d="M48.9,30.2L48.9,30.2c0.1,0.1,0.2,0.2,0.4,0.5c0-0.2,0-0.4-0.1-0.5L48.9,30.2L48.9,30.2z"/>
					<path d="M48.6,30.4c-0.1-0.4-0.1-0.6-0.3-1c-0.2,0.1,0,0.4,0,0.6C48.5,29.7,48.3,30.2,48.6,30.4c0,0-0.1,0.1-0.1,0.1
						c0.1,0,0.1,0.1,0.2,0.1c0,0,0,0,0,0l0,0c0,0,0,0,0,0c0,0,0-0.1,0,0c0,0,0,0,0,0C48.6,30.5,48.6,30.4,48.6,30.4
						c0.1,0.1,0.1,0.1,0.1,0.2c0,0,0,0,0,0.1c0,0,0,0,0,0l0.2-0.3C48.8,30.3,48.7,30.3,48.6,30.4z"/>
					<path d="M46.4,29C46.4,29,46.4,29.1,46.4,29C46.4,29,46.4,29,46.4,29z"/>
					<path d="M46.6,29.2c0,0.1,0.1,0.2,0,0.2c-0.1-0.1-0.1-0.2-0.1-0.3c0,0.1,0,0.3,0.2,0.5l0-0.1c0.2,0.1,0.5,0.5,0.5,0.6
						C47,29.7,46.8,29.5,46.6,29.2z"/>
					<path d="M47.6,29.7l0.1-0.3l-0.3-0.3l0.1,0.2C47.4,29.3,47.5,29.5,47.6,29.7z"/>
					<polygon points="49.3,30.4 49.4,30.8 49.3,30.2 					"/>
					<polygon points="49.6,30.2 49.7,30.6 49.7,30.3 					"/>
					<path d="M63.6,18.7l0-0.1C63.6,18.6,63.6,18.6,63.6,18.7z"/>
					<path d="M63.2,18.8l0.1,0.2C63.2,18.9,63.2,18.8,63.2,18.8z"/>
					<path d="M56.5,27.1c0.2,0.3,0.6,0.8,0.4,0.4l-0.2-0.4C56.7,27.2,56.6,27.2,56.5,27.1z"/>
					<path d="M60.3,22.6c0,0-0.1-0.1-0.1-0.1c0,0.1,0.1,0.3,0.1,0.4C60.3,22.8,60.3,22.7,60.3,22.6z"/>
					<path d="M59.6,20.9l0.2,0.2C59.8,21.1,59.7,21,59.6,20.9z"/>
					<path d="M66,17.1l-0.1-0.4C65.8,16.7,65.9,16.9,66,17.1z"/>
					<path d="M52.4,28.8c0.1,0.1,0.2,0.2,0.3,0.2C52.5,28.8,52.3,28.4,52.4,28.8z"/>
					<path d="M65.3,22.9c0-0.1,0-0.2-0.1-0.3C65.2,22.8,65.3,22.9,65.3,22.9z"/>
					<path d="M52.9,28.8C52.9,28.8,52.9,28.8,52.9,28.8c-0.1,0-0.1,0.1-0.2,0.1C52.9,29.1,53,29.1,52.9,28.8z"/>
					<path d="M75.4,13.4C75.4,13.4,75.4,13.4,75.4,13.4C75.4,13.4,75.4,13.4,75.4,13.4z"/>
					<path d="M79.8,16.2C79.8,16.2,79.8,16.3,79.8,16.2C79.7,16.3,79.8,16.3,79.8,16.2z"/>
					<path d="M50.8,29.9C50.7,29.9,50.8,29.9,50.8,29.9L50.8,29.9z"/>
					<path d="M49.8,28.4c0-0.1,0-0.1-0.1-0.2C49.8,28.3,49.8,28.4,49.8,28.4z"/>
					<path d="M52.5,26.1C52.5,26.1,52.5,26.1,52.5,26.1C52.4,26,52.4,26,52.5,26.1z"/>
					<path d="M50.6,29.7c0,0,0.1,0.1,0.1,0.1C50.7,29.8,50.7,29.8,50.6,29.7z"/>
					<path d="M50.7,29.9C50.7,29.9,50.7,29.9,50.7,29.9C50.7,30,50.7,30,50.7,29.9z"/>
					<path d="M50.9,29.8c0,0-0.1,0-0.1,0C50.8,29.9,50.8,29.9,50.9,29.8C50.8,29.9,50.8,29.9,50.9,29.8z"/>
					<path d="M70.9,16.6C70.9,16.6,70.9,16.6,70.9,16.6C70.9,16.5,70.9,16.5,70.9,16.6z"/>
					<path d="M56.3,22.3C56.3,22.3,56.3,22.3,56.3,22.3C56.3,22.3,56.3,22.3,56.3,22.3L56.3,22.3z"/>
					<path d="M56.4,21.9c0.1,0.5,0,0.5-0.1,0.4l0.6,1.1L56.4,21.9z"/>
					<path d="M64.7,18l-0.3-0.3c-0.1-0.7,0.1-0.5-0.2-1c0.5,1.3-0.5,0.4,0,1.6l-0.2-0.2c0,0,0-0.1,0-0.1c-0.5-0.5,0.3,1-0.1,0.9
						c-0.1-0.1-0.3-0.2-0.3-0.4L63.6,19c-0.1,0-0.1-0.2-0.1-0.2l-0.3,0.2l0,0c0,0.2,0.1,0.6,0.1,0.7c-0.2-0.1,0-0.1-0.1-0.3l0,0.4
						c-0.2-0.3-0.2-0.7-0.1-0.7c-0.7-1.2,0,0.4-0.7-0.2l0.1-0.2c-0.4-0.7-0.4-0.4-0.8-0.7c0.1,0.2,0.8,1,0.8,1.3
						c-0.1-0.1-0.2-0.1-0.2,0.2c-0.2-0.4-0.2-0.3-0.3-0.2l-0.2-0.6c-0.1,0.2,0.1,0.5,0.1,0.8c-0.2,0-0.4-0.4-0.6-0.8
						c-0.3,0,0.5,0.7,0.3,0.9c-0.3-0.1-0.3,0.2-0.4,0.6c-0.2-0.1-0.1-0.4-0.3-0.5l0.1,0.5c0,0-0.1-0.1-0.1-0.2
						c0,0.2,0.2,0.6,0.2,0.8c0.2,0.7-0.7-0.8-0.6,0c-0.1-0.1-0.1-0.4-0.2-0.6c-0.1,0.6-0.1,0.4,0,1.2l-0.4-0.3
						c0.3,0.4,0.4,1,0.4,1.5c0.1,0.2,0.3,0.4,0.3,0.4l-0.1,0.4c-0.1-0.1-0.1-0.3-0.2-0.6c0,0.1,0,0.1,0,0.2
						c-0.2-0.2-0.3-0.5-0.4-0.9c0.1,0.1,0.2,0.2,0.2,0.3c-0.1-0.4-0.2-0.8-0.4-1.1c0,0.1,0,0.1,0,0.2c0-0.1-0.1-0.2-0.1-0.2
						c0-0.1,0,0.1,0,0.2l-0.3-0.6l0.1,0.3L59,20.9c0.1,0.8,0.3,1.8,0,2.2c-0.1-0.5-0.3-0.8-0.6-1.4c0.4,0.6,0.2-0.4,0.4-0.3
						c-0.1,0-0.2-0.3-0.2-0.4l-0.1,0.7c-0.2-0.5-0.2-0.3-0.4-0.5c0.5,0.9,0,0.7,0,1.1c-0.1-0.3-0.2-0.6-0.1-0.6
						c-0.5-0.6,0.2,1.2-0.2,0.7c0,0,0.1,0,0-0.2c0,0.3-0.3,0.2-0.4-0.1l0,0c-0.3,0-0.8,0.4-0.5,1.1c0-0.1-0.4-1-0.4-1.1l0.7,2.8
						c-0.3-0.7-1.1-2.2-1.1-2.7c-0.1-0.1-0.2-0.1-0.3,0.2c0.1,0.1,0.5,0.9,0.5,1c-0.5-0.7-0.3-0.3-0.8-0.9c0.1,0.1,0.5,1.2,0.4,1.2
						c-0.1-0.2-0.5-1-0.5-1.2l0.2,1.1c0-0.2-0.4-0.9-0.6-1.1c0.1,0.2-0.2,0.1-0.3,0.2l0.2,0.2c-0.4,0,0.4,1.6,0,1.6
						c-0.1-0.2-0.5-1.3-0.7-1.4c0.2,0.6,0.8,2.7,0.7,3.2l-0.2-0.3l0,0.4c-0.2-0.8-0.6-2.7-0.7-3.4c-0.2-0.2-0.2-0.3-0.3-0.2
						c-0.2-0.3-0.1-0.5-0.1-0.5l-0.5,0c0.3,0.6,0,0.7,0.2,1.3l0.1-0.8c0.3,0.6,0.5,1.9,0.2,1.9c-0.2-0.2-0.4-1.1-0.5-1.3
						c0.1,0.2-0.1,0.5-0.2,0.4l0-0.4c-0.3-0.2,0.1,0.9-0.3,0.4c-0.1,0-0.5-0.7-0.4-0.3c0.4,0.7,1.4,2.8,1.6,3.4c0,0-0.6-0.5-0.8-0.8
						c-0.3-0.5-0.4-1.4-0.7-1.8c0.1,0.2,0.1,0.4,0.1,0.5c-0.1-0.1-0.2-0.5-0.3-0.4c0.3,0.6-0.3,0.1,0.2,0.6c-0.1,0.2-0.2-0.1-0.4,0
						c0.2,0.4,0.5,1.4,0.4,1.7c-0.1-0.2-0.2-0.4-0.2-0.4c-0.3,0.1-0.6-0.1-0.9,0c-0.1-0.1-0.3-0.3-0.4-0.6c0,0.1,0.1,0.4,0,0.4
						c-0.4-0.5,0.1-0.2-0.3-0.8c0.1,0.4,0,0.6,0,0.9c0.3,0.5,0.3,0,0.3-0.3c0.3,0.8,0.5,1.7,0.4,2.1c-0.1,0.3-0.3-0.5-0.3-0.3
						c-0.5,0,0.2,1.5-0.3,1.1c-0.4-0.4-0.4-1-0.6-1.3c0.1-0.3,0.4,0.2,0.5,0.1l-0.3-0.2c0-0.2,0-0.4,0.2-0.3c-0.3-0.4-0.7,0.2-1.2,0
						c0,0.2,0,0.4,0.1,0.6l0.1-0.1c0.3,0.4,0.1,0.6,0.3,0.8c0,0.3,0,0.8-0.3,0.7l-0.3-0.5c0.1,0.2,0.3,0.3,0.2,0.1
						c0,0.3-0.6-0.6-0.4,0.1l0.3,0.3c0,0.3,0.1,1-0.2,0.9c0.3,0.5,0-0.1,0.4,0.5c-0.5-0.8,0.4-0.2-0.1-0.9c0.5,0.7,0.4,0.2,0.8,0.8
						c-0.1-0.2-0.2-0.3,0-0.3c0-0.1,0-0.1,0-0.2c0,0,0,0,0,0c0,0,0,0,0,0c0,0,0,0,0,0c-0.1-0.1-0.1-0.2-0.2-0.2
						c-0.1-0.5,0.1-0.5,0.1-0.8c0.1,0.1,0.1,0.2,0.2,0.4l0-0.4c0.2,0.4,0.5,0.6,0.4,0.9l0.2-0.1c0.2,0.2,0.4,0.2,0.4,0
						c0.1,0.1,0-0.5,0.1-0.2l0.2-0.4l0,0.1c0.3-0.1,0.3-0.9,0.9-0.3c0-0.1,0.1-0.3,0.3-0.3l0.2,0.3c0.1-0.2,0.5,0.2,0.4-0.2
						c0.5,0.9,0.7,0,1,0l-0.2-0.5c0.2,0,0.2-0.2,0.3-0.5l-0.2-0.4c0-0.4,0.5,0.1,0.7,0c0.1,0.2,0,0.2-0.1,0.1
						c0.7,0.8,0.3-0.9,0.9-0.4c0-0.2,0.1-0.1,0.2-0.1c0,0,0,0,0,0c0,0,0,0,0,0c0.1,0.1,0.1,0.1,0.2,0.2c-0.1-0.1-0.1-0.2-0.2-0.2
						c0,0,0.1-0.1,0.1-0.3l0.2,0.4c0,0,0,0,0,0c0.1,0.1,0-0.2-0.2-0.5c0-0.1,0-0.2,0-0.3c0.4,0.7,0.1-0.3,0.5,0.4
						c-0.1-0.4,0.3-0.4,0-1.2c0,0.1,0.1,0.1,0.1,0.2c0.1,0.1,0.2,0.1,0.2-0.1l0.3,0.5l-0.1-0.8c0.3,0.3,0.4,0.5,0.5,1
						c0-0.8,0.1-0.3,0-1.1l0.1,0.4c0.1,0,0-0.6,0.2-0.3c0.5,0.6,0.9-0.3,1.7,0.1c-0.6-1,0.4,0.4,0.1-0.5c0.1,0.2,0.3,0.4,0.3,0.6
						c0.1-0.4,0.5,0.2,0.4-0.5c0.1,0.2,0.1,0.4,0.2,0.5c0-0.1,0-0.3,0.1-0.1c0.1,0.1,0.1,0.2,0.1,0.4c0.2-0.1-0.1-0.9-0.4-1.7
						c0.3,0.3,0.3,0.2,0.2-0.3c0.1,0.2,0.3,0.4,0.2,0.6c0.1,0,0.7,0.1,0.4-0.5c0.1,0.1,0.1,0,0.1-0.1c0.2,0,0.2,0,0.4-0.1l-0.1-0.1
						c-0.2-0.7,0.1-0.2,0.2-0.4l0,0.1c0.6,0.4,0-0.3,0.6,0.1l-0.2-0.4c-0.4-1,0.5,0.4,0.6,0l-0.2-0.2c0-0.4,0.9,1.2,1,1.2
						c0.1,0.1,0,0.1,0,0.2c0.5,0.4-0.2-0.6-0.1-0.8c0.2,0.3,0.3,0.8,0.5,0.8c0.2,0.2,0-1.2,0.4-0.7c-0.1-0.2-0.3-0.4-0.3-0.7
						c0.1-0.2,0.8,0.7,0.6-0.1c0,0.1,0.1,0.1,0.1,0.2c0-0.2,0.2-0.5,0.1-0.9c0.8,1.5,0.4-1.1,1,0.3l0.3-0.2l0.1,0.1
						c0.3,0,0.2-0.4,0.1-0.7c0.1,0.1,0.1,0.2,0.1,0.3c0.5,0.1,0.5,0.1,0.4-0.8l0.2,0.4c0-0.3,0.8,0.5,0.9-0.2c0,0.1,0.1,0.1,0.1,0.2
						c0.1-0.7,1.4,0.9,0.8-0.8l0.1-0.5c-0.4,0-0.3-0.7-0.5-1c0.1-0.2,0.5,0.4,0.4,0.5l-0.1-0.1c0.3,0.9,0.5,0.1,0.8,0.7
						c0.6-0.3,1.4-0.1,2-0.3l-0.4-0.6l0.2-0.1c0.1,0.1,0.3,0.5,0.1,0.5c0.2,0.3,0.1-0.4,0-0.6c0.4,0.1,0.2,0.8,0.3,0.8l0.1-0.1
						l-0.1-0.1c0-0.3-0.1-0.6,0-0.7c0.2,0.1,0.2,0.4,0.3,0.4c0,0,0,0.1,0.1,0l0.3-0.1l-0.3-0.5c0-0.3,0.3-0.1-0.1-0.6
						c0.6,0.8,1.1-0.1,1.3,0.2c0-0.5,0.1-0.5,0.4-0.6c-0.1-0.1-0.4-0.7-0.2-0.7c0.5,1.3,0.5,0.4,1.1,1.2c-0.4-0.5,0.4-0.4-0.1-1.1
						c0.2,0,0.2,0.5,0.4,0.7c0.1-0.6,0.9,0,1.2-0.4c-0.1-0.2-0.2-0.4-0.3-0.7l0.6,0.7c0-0.1-0.3-1,0.1-0.5C77.1,17.2,77,17,77,16.9
						c1.1,0.4,1.3-1.4,2.8-0.2c-0.2-0.3-0.2-0.3-0.1-0.4c-0.1-0.1-0.2-0.4-0.3-0.6l0.6,0.5c-0.2-0.6,0.3-0.2,0.1-0.8l-0.1,0.2
						c-0.2-0.7-0.9-1.4-1.2-2.3c0.2,0.8-0.9-1-0.7,0.3c-0.1-0.2-0.1-0.3-0.2-0.5c0.1,0.4,0.1,0.5-0.2,0.4l0-0.1
						c-0.4,0.3-0.7,0-1.3-0.1l0.2,0.4c-0.1,0-0.2-0.1-0.3-0.2c0.2,0.7,0.3-0.1,0.5,0.7c-0.5-0.8-0.7,0.3-1.2-0.7
						c-0.2,0.1,0.3,0.5,0.1,0.5l-0.2-0.3l0.1,0.4c-0.1,0-0.3-0.3-0.4-0.6c0,0,0-0.1,0.1-0.1c-0.3-0.3-0.3,0.3-0.4,0.2l0.2,0.1
						c-0.3,0.4-1,0.3-1.2,1l0.1,0.2c-0.1,0.5-0.3-0.1-0.6,0.2l0-0.1c0,0.2,0,0.4-0.1,0.4c0-0.3-0.4-0.4-0.4-0.7
						c-0.2,0.6,0,0.4,0.1,1.3l-0.2-0.3c0.1,0.3,0.1,0.5,0,0.7c0-0.4-0.3-0.5-0.3-0.9c-0.7-0.6-0.2,1-0.8,0c0.2,1,0.5,0.4,0.5,0.6
						c0.2,0.3,0.2,0.8,0,0.7c-0.1,0-0.7-1.1-1-1c0,0,0-0.1,0-0.1c-0.2-0.2-0.1,0.4-0.4,0.1c0.2,0.6-0.2,0,0.1,0.8l0.2-0.3
						c-0.1,0.3,0.2,1.2-0.3,0.9c0-0.2-0.1-0.4-0.1-0.5c-0.2-0.2-0.1,0.2-0.2,0c-0.3-0.7,0.3-0.3,0.2-0.9c-0.2-0.3-0.1,0.7-0.3-0.2
						c0.3,1-0.3,0-0.2,0.8L70.1,16c0,0.1,0,0.3,0,0.3l-0.1-0.6c0.1,0.6-0.5-0.3-0.5,0c0.3-0.2,0.3,0.5,0.6,0.7
						c-0.1,0.8-0.7-1-1.1-0.6c0-0.1,0.3,0.2,0.3,0.4c-0.1-0.1-0.3-0.2-0.5-0.4c-0.3,0.2,0.2,0.4,0.2,0.7c-0.3-0.5,0,0.3-0.1,0.5
						l-0.2-0.4c-0.5-0.1,0.3,1-0.1,0.7l-0.1-0.7L68.3,17l-0.2-0.5c0,0.4-0.1,0.4-0.3,0.3c0.2,0.3,0.3,0.8,0.2,0.9
						c-0.2-0.2-0.1-0.4-0.3-0.3c-0.1-0.3-0.2-0.7,0.1-0.3c-0.1-0.1-0.1-0.3-0.1-0.4c-0.2-0.3-0.3,0.1-0.4,0.1c0,0,0.1,0,0.1,0.1
						l0,0.7c-0.1-0.1-0.1-0.3-0.2-0.4c0,0.1,0,0.3-0.1,0.4c-0.1-0.4-0.3-0.7-0.3-1L66.8,17c-0.1-0.1-0.3-0.4-0.4-0.5
						c-0.3-0.1-0.1,0.9-0.4,0.7c0,0.1,0,0.2,0,0.2c-0.2,0-0.6-0.4-0.6,0.2L65,17.1c-0.1,0.2,0.5,0.7,0.3,1.1
						c-0.1,0.3-0.3-0.5-0.5-0.7c0,0.4,0.1,1.1-0.3,0.7C64.6,18,64.7,18.1,64.7,18z M62.5,19.3c0-0.1,0-0.4,0.1-0.2
						C62.8,19.7,62.7,19.4,62.5,19.3z M59.6,21.9c0-0.2,0.1-0.1,0.2,0C59.7,22,59.7,22,59.6,21.9z M51.3,29.2
						C51.3,29.2,51.3,29.2,51.3,29.2C51.5,29.3,51.4,29.3,51.3,29.2z M51,29.1c0,0.1,0,0.1,0.1,0.2c0-0.1,0-0.1,0.1-0.1
						C51.1,29.1,51,29,51,29.1z M72.8,19.3L72.8,19.3C72.8,19,72.8,19.2,72.8,19.3z"/>
					<path d="M59.7,21.1c0,0.1,0.1,0.1,0.1,0.2C59.8,21.3,59.8,21.2,59.7,21.1z"/>
					<path d="M66,17.2C66,17.2,66,17.2,66,17.2C66,17.2,66,17.1,66,17.2L66,17.2z"/>
					<path d="M52.5,24c0.1,0,0.1,0.1,0.2,0.2C52.6,24.1,52.6,24,52.5,24z"/>
					<path d="M50.2,30.4l0.1-0.2c-0.1,0-0.1,0-0.2-0.1C50.2,30.2,50.3,30.3,50.2,30.4z"/>
					<path d="M47.9,28.1C47.9,28.2,47.9,28.2,47.9,28.1l0.1,0.3C48,28.4,48,28.2,47.9,28.1z"/>
					<path d="M49.5,28.9c-0.2-0.4-0.2-0.2-0.3-0.1c0,0,0,0,0,0C49.4,29.4,49.5,29.2,49.5,28.9z"/>
					<path d="M49.2,28.9C49.2,28.9,49.2,28.9,49.2,28.9C49.2,29.1,49.2,28.9,49.2,28.9z"/>
					<path d="M50.8,29.5c-0.1-0.1,0.2,0.5,0.1,0.3C51.1,30.3,51,29.1,50.8,29.5z"/>
					<polygon points="48.9,27.8 49.1,28.2 49,27.8 					"/>
					<path d="M49.7,27.8l-0.2-0.1c0,0.1,0,0.1,0,0.2C49.7,27.9,49.8,27.9,49.7,27.8z"/>
					<path d="M49.6,27.9c-0.1,0-0.1,0-0.1,0.1C49.5,28,49.5,28,49.6,27.9z"/>
					<polygon points="49,27.5 49.1,27.6 49.2,27.6 					"/>
					<path d="M51.3,27.2l0.1-0.2c-0.1-0.2-0.1-0.2-0.2-0.2C51.3,26.9,51.3,27,51.3,27.2z"/>
					<path d="M50.3,26.1c0.1,0.1,0.1,0.2,0.2,0.3l-0.2-0.6L50.3,26.1z"/>
					<path d="M50.7,25.8c-0.1-0.2,0-0.6-0.2-0.4C50.6,25.5,50.5,25.7,50.7,25.8z"/>
					<polygon points="53.4,25.4 53.4,25.5 53.8,26.4 					"/>
					<path d="M54.6,22.3c-0.3-0.1,0.2,0.6-0.1,0.4c0.1,0.2,0.2,0.2,0.3,0.4C54.8,22.8,54.9,22.9,54.6,22.3z"/>
					<path d="M54.8,23.1c0,0,0,0.1,0,0.2C54.8,23.1,54.8,23.1,54.8,23.1z"/>
					<polygon points="80.5,16.5 80.7,16.6 80.5,16.4 					"/>
					<path d="M80.4,15.7l0.3,0.6l-0.2-0.6C80.5,15.8,80.5,15.8,80.4,15.7z"/>
					<path d="M61.7,18.3l0.1,0.1c0.1,0.1,0.1,0.1,0.2,0.1L61.7,18.3z"/>
					<polygon points="63.5,18 63.5,18 63.8,18.5 					"/>
					<path d="M64.6,16.7c-0.1,0-0.1,0.2-0.1,0.2C64.5,16.7,64.9,17.4,64.6,16.7z"/>
				</g>
			</g>
		</g>
	</g>
</g>
<g>
	<g>
		<g>
			<g>
				<g>
					<path d="M42.9,1c0-0.1-0.2,0.3-0.2,0.4C42.8,1.4,42.9,0.9,42.9,1z"/>
					<polygon points="44.1,0.5 44.1,0.7 44.4,0.3 					"/>
					<path d="M44.9,0.9c0.2-0.7-0.3,0-0.4-0.3l0-0.2l-0.3,0.5C44.5,0.9,44.9,0.6,44.9,0.9z"/>
					<path d="M44.8,2.5c0.1-0.3,0.2-0.2-0.1-0.1C44.7,2.4,44.7,2.4,44.8,2.5C44.7,2.4,44.7,2.5,44.8,2.5z"/>
					<path d="M44.7,2.4C44.6,2.4,44.6,2.7,44.7,2.4L44.7,2.4z"/>
					<path d="M45.1,2.5l-0.2,0.2c0,0.2,0,0.2,0,0.3C45,2.9,45.1,2.7,45.1,2.5z"/>
					<path d="M45.5,2l-0.1,0.1C45.3,2.2,45.3,2.2,45.5,2z"/>
					<path d="M45.1,2.3l0.2-0.1c0-0.1,0.1-0.3-0.1,0C45.4,2,45.3,2.1,45.1,2.3z"/>
					<path d="M45.1,2.1c0-0.2,0-0.3,0.2-0.5C45,1.6,44.9,2.1,45.1,2.1z"/>
					<path d="M45.3,0.2l0-0.2l-0.2,0.2C45.2,0.1,45.2,0.4,45.3,0.2z"/>
					<path d="M45.7,3.1c0.1-0.1,0.1-0.4,0.2-0.6l-0.2,0.1C45.7,2.8,45.8,2.9,45.7,3.1z"/>
					<path d="M45.9,2.5l0.2-0.2C46,2.3,45.9,2.4,45.9,2.5z"/>
					<polygon points="45.8,1.3 45.4,1.7 45.8,1.3 					"/>
					<polygon points="46.2,3.3 45.9,3.6 46.3,3.2 					"/>
					<path d="M46.5,3.4c-0.2,0.2-0.1,0.5-0.3,0.6c0.1,0,0.3-0.2,0.4-0.4C46.5,3.7,46.5,3.7,46.5,3.4z"/>
					<path d="M46.9,3.4c-0.1,0-0.2,0.1-0.2,0.3C46.7,3.6,46.8,3.5,46.9,3.4z"/>
					<path d="M46.3,2.5c0,0.1-0.1,0.3-0.1,0.4L46.3,2.5C46.3,2.5,46.3,2.5,46.3,2.5z"/>
					<path d="M46.3,2.5L46.3,2.5C46.4,2.6,46.4,2.6,46.3,2.5C46.4,2.6,46.4,2.6,46.3,2.5z"/>
					<path d="M46.3,2.5C46.3,2.5,46.3,2.5,46.3,2.5C46.3,2.5,46.3,2.5,46.3,2.5z"/>
					<path d="M46,1.8c0.2-0.2,0.4-0.4,0.4-0.8C46.2,1.3,46.2,1.5,46,1.8z"/>
					<path d="M46.4,2l-0.1-0.1c0,0.1-0.1,0.3-0.2,0.4L46.4,2z"/>
					<polygon points="46.6,1.9 46.4,2 46.5,2.1 					"/>
					<path d="M46.9,2.9c0.1-0.1,0.2-0.1,0.3-0.1c0-0.1-0.1-0.2-0.2-0.2C46.9,2.7,46.8,2.9,46.9,2.9z"/>
					<path d="M46.6,2.7C46.6,2.7,46.6,2.7,46.6,2.7C46.6,2.7,46.6,2.6,46.6,2.7z"/>
					<path d="M47.8,3.1C47.8,3.1,47.8,3.1,47.8,3.1C47.8,3.1,47.8,3.1,47.8,3.1L47.8,3.1z"/>
					<path d="M47,2.5c0-0.1-0.1,0-0.2,0.1C46.9,2.6,46.9,2.6,47,2.5C47,2.5,47,2.5,47,2.5z"/>
					<path d="M47.2,3.3c0-0.1,0-0.2,0-0.3C47.2,3.2,47.1,3.4,47.2,3.3z"/>
					<path d="M46.6,2.8C46.6,2.8,46.6,2.8,46.6,2.8C46.6,2.9,46.6,2.9,46.6,2.8z"/>
					<path d="M46.6,2.8c0.1,0,0.1-0.1,0.2-0.2c0,0-0.1,0-0.2,0.1C46.6,2.7,46.6,2.8,46.6,2.8z"/>
					<path d="M49.1,0.7c-0.2,0.4-0.5,0.6-0.4,0.2c-0.2,0.2-0.7,1.4-0.9,2.2c0.1-0.2,0.1-0.3,0.4-0.5c0-0.2-0.1-0.6,0.2-0.9
						c0.3-0.1,0.1,0.2,0.1,0.4c0.1-0.5,0.5-0.6,0.8-1.2L49,1.1C49,1,49.1,0.8,49.1,0.7z"/>
					<path d="M47.6,2.9L47.6,2.9c0,0.1-0.1,0.3-0.1,0.6c0.2-0.1,0.2-0.3,0.3-0.4L47.6,2.9L47.6,2.9z"/>
					<path d="M47.3,2.8c0.2-0.4,0.4-0.5,0.5-0.9c-0.2,0-0.3,0.3-0.4,0.4C47.7,2.3,47.2,2.5,47.3,2.8c-0.1,0-0.1,0-0.2,0
						c0,0.1,0,0.1,0.1,0.2c0,0,0,0,0,0l0,0c0,0,0,0,0,0c0-0.1,0-0.1,0-0.1c0,0,0,0,0,0C47.2,2.9,47.3,2.9,47.3,2.8
						c0,0.1,0,0.1-0.1,0.1c0,0,0,0,0,0.1c0,0,0,0,0,0l0.4-0.1C47.5,2.9,47.4,2.8,47.3,2.8z"/>
					<path d="M46.9,0.3C46.9,0.3,46.9,0.3,46.9,0.3C46.9,0.3,46.9,0.3,46.9,0.3z"/>
					<path d="M46.9,0.6c0,0-0.1,0.2-0.2,0.1c0-0.1,0.1-0.2,0.1-0.3c-0.1,0.1-0.3,0.2-0.2,0.5l0,0c0,0.2,0,0.7-0.1,0.8
						C46.7,1.2,46.8,0.9,46.9,0.6z"/>
					<path d="M47.2,1.6l0.3-0.1l0-0.4l-0.1,0.2C47.3,1.2,47.2,1.4,47.2,1.6z"/>
					<polygon points="47.8,3.3 47.5,3.7 47.9,3.2 					"/>
					<polygon points="48.1,3.4 47.9,3.8 48.1,3.6 					"/>
					<path d="M65.6,5.8l0.1-0.1C65.6,5.8,65.6,5.8,65.6,5.8z"/>
					<path d="M65.1,5.6L65,5.8C65.1,5.7,65.1,5.6,65.1,5.6z"/>
					<path d="M54.8,6.4c-0.1,0.4-0.2,0.9,0,0.5L55,6.5C54.9,6.5,54.8,6.5,54.8,6.4z"/>
					<path d="M60.5,6.1c0,0,0-0.1,0-0.1c-0.1,0.1-0.2,0.2-0.2,0.4C60.4,6.2,60.4,6.1,60.5,6.1z"/>
					<path d="M61.3,4.5l0,0.3C61.3,4.7,61.3,4.6,61.3,4.5z"/>
					<path d="M68.2,6.5l0.3-0.4C68.4,6.1,68.3,6.3,68.2,6.5z"/>
					<path d="M50.9,4.5c0,0.2,0,0.3,0.1,0.3C51,4.6,51.1,4.2,50.9,4.5z"/>
					<path d="M63.5,10c0.1-0.1,0.1-0.1,0.2-0.2C63.6,9.8,63.6,9.9,63.5,10z"/>
					<path d="M51.3,4.9c0,0,0-0.1,0-0.1c-0.1,0-0.2,0.1-0.2,0C51,5,51.1,5.2,51.3,4.9z"/>
					<path d="M77,10.8C77,10.8,77,10.8,77,10.8C77,10.8,77,10.8,77,10.8z"/>
					<path d="M77.8,15.9c0,0-0.1,0-0.1,0C77.7,16,77.7,16,77.8,15.9z"/>
					<path d="M49.1,4.1C49,4.1,49.1,4.1,49.1,4.1L49.1,4.1z"/>
					<path d="M49.5,2.4c0,0,0.1-0.1,0.1-0.2C49.6,2.3,49.5,2.3,49.5,2.4z"/>
					<path d="M52.9,2.7C52.9,2.7,52.9,2.7,52.9,2.7C53,2.7,53,2.7,52.9,2.7z"/>
					<path d="M49.1,3.9c0,0.1,0,0.1,0,0.2C49.1,4,49.1,3.9,49.1,3.9z"/>
					<path d="M49,4C49,4,49,4,49,4C48.9,4.1,48.9,4.1,49,4z"/>
					<path d="M49.2,4.1C49.1,4.1,49.1,4,49.2,4.1C49.1,4,49.1,4.1,49.2,4.1C49.1,4.1,49.1,4.1,49.2,4.1z"/>
					<path d="M71.7,9.7C71.7,9.7,71.7,9.8,71.7,9.7C71.9,9.6,71.8,9.6,71.7,9.7z"/>
					<path d="M58.2,2.9C58.2,2.9,58.2,2.9,58.2,2.9C58.2,3,58.2,3,58.2,2.9L58.2,2.9z"/>
					<path d="M58.5,2.7c-0.3,0.5-0.3,0.4-0.4,0.2l-0.4,1.2L58.5,2.7z"/>
					<path d="M66.7,6.2l0-0.4c0.4-0.5,0.5-0.2,0.6-0.8c-0.6,1.2-0.6-0.1-1.2,1.1l0-0.3c0,0,0.1,0,0.1,0c0.1-0.7-0.5,0.8-0.7,0.6
						c0-0.1,0-0.3,0.1-0.5L65.2,6c0,0,0.1-0.3,0.1-0.2l-0.3,0l0,0c-0.1,0.2-0.4,0.4-0.5,0.5c0-0.2,0.1-0.1,0.1-0.3l-0.3,0.2
						c0.1-0.4,0.3-0.6,0.4-0.5c0.4-1.3-0.3,0.3-0.3-0.6l0.2-0.1c0.2-0.7,0-0.5,0-1.1c-0.1,0.2-0.2,1.3-0.5,1.5c0-0.1-0.1-0.2-0.3,0
						c0.2-0.4,0.1-0.4-0.1-0.4l0.3-0.6c-0.2,0.1-0.3,0.4-0.5,0.6c-0.1-0.1,0.1-0.6,0.2-1C63.8,4,63.8,5,63.5,5
						c-0.1-0.3-0.3-0.1-0.7,0.1c0-0.3,0.2-0.3,0.2-0.5L62.7,5c0,0,0-0.2,0.1-0.2c-0.2,0.1-0.3,0.6-0.5,0.7C62,6.1,62.4,4.4,61.9,5
						c0-0.2,0.2-0.3,0.3-0.6c-0.5,0.4-0.4,0.3-0.9,0.8l0-0.5c-0.1,0.5-0.5,0.9-0.8,1.3c0,0.2-0.1,0.4-0.1,0.5L60,6.8
						c0-0.1,0.1-0.3,0.3-0.5c0,0-0.1,0.1-0.1,0.1c0-0.3,0.2-0.6,0.4-0.9c0,0.1,0,0.3-0.1,0.4c0.2-0.3,0.4-0.7,0.6-1
						C61.1,4.9,61,5,61,5c0.1-0.1,0.1-0.2,0.1-0.2c0-0.1-0.1,0.1-0.2,0.2l0.2-0.7L61,4.5L60.9,4c-0.5,0.6-1.1,1.4-1.6,1.6
						c0.3-0.4,0.4-0.8,0.6-1.3c-0.2,0.6,0.4-0.1,0.5,0.1c-0.1-0.1,0.1-0.4,0.1-0.4L60,4.2c0.2-0.5,0.1-0.4,0.1-0.6
						c-0.3,0.9-0.5,0.5-0.8,0.7c0.1-0.3,0.3-0.6,0.4-0.5c0.1-0.8-0.7,1-0.6,0.3c0,0,0,0.1,0.1-0.1c-0.2,0.2-0.3-0.1-0.2-0.3l0,0
						c-0.2-0.2-0.8-0.4-1.2,0.4c0-0.1,0.5-0.9,0.5-1.1l-1.6,2.4c0.3-0.6,0.9-2.3,1.3-2.6c0-0.1,0-0.3-0.3-0.1c0,0.1-0.3,1-0.4,1
						c0.2-0.8,0.1-0.4,0.2-1.2c0,0.2-0.5,1.2-0.6,1.1c0.1-0.1,0.5-1,0.5-1.1l-0.7,0.9c0.1-0.2,0.4-0.9,0.5-1.2
						c-0.1,0.2-0.2-0.1-0.3,0l0,0.3c-0.2-0.3-0.9,1.3-1.2,1.1c0.1-0.2,0.7-1.3,0.6-1.5c-0.3,0.5-1.4,2.4-1.8,2.7l0.1-0.3L54.3,5
						c0.5-0.7,1.5-2.3,2-2.8c0-0.3,0.1-0.4,0-0.4c0.1-0.3,0.3-0.4,0.3-0.4L56.3,1c-0.3,0.6-0.6,0.5-0.8,1l0.7-0.5
						C56,2.2,55.2,3.2,55,3c0-0.3,0.5-1.1,0.6-1.3c-0.1,0.2-0.4,0.3-0.4,0.1l0.3-0.3c0-0.3-0.6,0.7-0.5,0c0-0.1,0.2-0.9,0-0.5
						c-0.2,0.7-1.2,2.9-1.5,3.4c0-0.1,0-0.8,0.1-1.2c0.1-0.6,0.7-1.2,0.9-1.8C54.4,1.8,54.2,2,54.2,2c0-0.2,0.3-0.5,0.1-0.5
						C54,2.1,54,1.3,54,2c-0.2,0.1-0.1-0.2-0.3-0.2c-0.1,0.4-0.7,1.3-1,1.4c0.1-0.2,0.1-0.4,0.2-0.5c-0.2-0.2-0.3-0.5-0.5-0.6
						c0-0.2,0-0.4,0.2-0.6c-0.1,0.1-0.2,0.3-0.3,0.3c0.1-0.6,0.2,0,0.4-0.7c-0.2,0.4-0.4,0.4-0.6,0.6c-0.2,0.6,0.2,0.2,0.4,0
						c-0.3,0.8-0.9,1.5-1.3,1.7c-0.3,0.1,0.1-0.5,0-0.4c-0.3-0.3-0.9,1.2-1,0.5c0.1-0.5,0.4-1,0.6-1.3C51,2,50.8,2.5,51,2.5l0-0.3
						c0.1-0.1,0.3-0.2,0.3,0c0.1-0.5-0.6-0.4-0.8-0.9c-0.1,0.1-0.3,0.3-0.3,0.5l0.1,0c-0.1,0.4-0.4,0.5-0.4,0.7
						c-0.3,0.2-0.6,0.6-0.7,0.3l0.2-0.6c-0.1,0.2,0,0.4,0.1,0.2c-0.2,0.2,0.1-0.9-0.4-0.2l0,0.4c-0.3,0.2-0.7,0.7-0.8,0.5
						c-0.2,0.6,0.1,0-0.1,0.7c0.3-0.8,0.4,0.2,0.6-0.7c-0.2,0.8,0.1,0.4-0.1,1.1C48.9,4,48.9,3.8,49,4c0-0.1,0.1-0.1,0.1-0.1
						c0,0,0,0,0,0c0,0,0,0,0,0c0,0,0,0,0,0c0-0.1,0-0.2,0.1-0.3c0.3-0.4,0.5-0.3,0.6-0.5c0,0.1-0.1,0.2-0.2,0.4l0.3-0.3
						c-0.2,0.4-0.1,0.8-0.4,0.9l0.2,0.1c0,0.3,0.1,0.4,0.3,0.3c0,0.1,0.4-0.4,0.2-0.1l0.4-0.1l0,0.1c0.2,0.2,0.8-0.4,0.8,0.4
						c0.1-0.1,0.3-0.1,0.4,0l-0.1,0.4c0.2-0.1,0.2,0.5,0.4,0.2c-0.3,1,0.5,0.5,0.6,0.7l0.2-0.5c0.1,0.1,0.3,0,0.6-0.1l0.2-0.4
						c0.3-0.3,0.3,0.5,0.5,0.5c-0.1,0.1-0.1,0.1-0.1,0c-0.1,1.1,0.9-0.4,0.8,0.4c0.1-0.1,0.2,0,0.2,0.1c0,0,0,0,0,0c0,0,0,0,0,0
						c0,0.1,0,0.2,0,0.3c0-0.1,0-0.2,0-0.3c0.1,0,0.1,0,0.3-0.1L55,6.5c0,0,0,0,0,0c0,0.2,0.2-0.2,0.3-0.5c0.1-0.1,0.1-0.1,0.2-0.2
						c-0.3,0.7,0.3-0.2,0,0.6C55.7,6,56,6.3,56.4,5.5c0,0.1,0,0.2-0.1,0.1c0,0.1,0.1,0.2,0.3,0.1l-0.2,0.6l0.5-0.7
						c0,0.4-0.1,0.6-0.4,1c0.6-0.5,0.3-0.2,0.8-0.7l-0.2,0.4c0.1,0,0.4-0.4,0.3-0.1c-0.1,0.8,0.8,0.5,1,1.3c0.4-1.1,0,0.6,0.4-0.2
						c-0.1,0.3-0.1,0.4-0.3,0.6c0.3-0.1,0.2,0.6,0.6-0.1C59.1,8,59,8.1,58.9,8.3c0,0,0.2-0.2,0.1,0c0,0.2-0.1,0.2-0.2,0.3
						c0.3,0.1,0.6-0.7,1-1.4c0,0.4,0,0.4,0.3-0.1c-0.1,0.3-0.1,0.5-0.3,0.6c0.1,0.1,0.3,0.6,0.6,0c0,0.2,0.1,0.1,0.1,0
						c0.2,0.1,0.2,0.2,0.4,0.2l0-0.1c0.4-0.7,0.2-0.1,0.4-0.1l0,0.1c0.1,0.7,0.3-0.2,0.3,0.5l0.2-0.4c0.5-0.9,0,0.7,0.4,0.4l0-0.3
						c0.2-0.3-0.3,1.4-0.2,1.6c0,0.1-0.1,0.1-0.2,0.2c0,0.7,0.3-0.6,0.6-0.6c-0.1,0.3-0.4,0.8-0.3,0.9c0,0.3,0.8-0.8,0.8-0.1
						c0.1-0.3,0.1-0.5,0.3-0.7c0.2,0,0,1.1,0.5,0.4c0,0.1,0,0.1-0.1,0.2c0.2-0.1,0.5-0.2,0.8-0.5c-0.6,1.6,1-0.4,0.4,1l0.4,0.1
						l-0.1,0.1c0.2,0.2,0.4-0.1,0.6-0.4c0,0.1-0.1,0.2-0.1,0.3c0.2,0.4,0.3,0.4,0.8-0.2l-0.2,0.5c0.2-0.2,0.1,0.9,0.7,0.5
						c0,0-0.1,0.1-0.1,0.2c0.6-0.4,0.3,1.6,1.2,0l0.4-0.3c-0.2-0.3,0.4-0.7,0.4-1c0.2,0,0.1,0.6-0.1,0.7l0-0.1
						c-0.4,0.8,0.2,0.5,0,1.1c0.6,0.2,1,1,1.5,1.2l0.2-0.7l0.2,0.1c0,0.2-0.2,0.6-0.3,0.5c-0.1,0.4,0.4-0.2,0.4-0.4
						c0.2,0.4-0.5,0.7-0.4,0.8l0.1,0l0-0.1c0.2-0.2,0.3-0.5,0.5-0.4c0,0.2-0.1,0.4-0.1,0.5c0,0,0,0.1,0.1,0l0.2,0.2l0.1-0.6
						c0.2-0.2,0.2,0.1,0.4-0.5c-0.2,1,0.8,0.7,0.7,1.1c0.3-0.3,0.5-0.2,0.6-0.1c0-0.1,0.2-0.7,0.4-0.6c-0.6,1.2,0.1,0.7-0.2,1.6
						c0.1-0.6,0.5,0.1,0.7-0.9c0.1,0.2-0.2,0.5-0.2,0.8c0.5-0.3,0.6,0.6,1,0.6c0.1-0.2,0.1-0.4,0.3-0.6l-0.1,0.9
						c0.1,0,0.5-0.9,0.4-0.3c0-0.1,0.1-0.4,0.2-0.4c0.4,1.1,1.9,0.1,2,1.9c0-0.4,0.1-0.4,0.2-0.3c0-0.1,0.2-0.4,0.3-0.6l0.1,0.8
						c0.3-0.6,0.4,0.1,0.7-0.4l-0.1,0.1c0.4-0.6,0.5-1.6,0.9-2.5c-0.5,0.7,0.1-1.3-0.6-0.3c0-0.2,0.2-0.3,0.2-0.5
						c-0.2,0.3-0.3,0.4-0.4,0.2l0.1-0.1c-0.4-0.1-0.5-0.5-0.8-1l-0.2,0.4c-0.1-0.1,0-0.2,0-0.4c-0.4,0.6,0.3,0.2-0.2,0.8
						c0.3-0.9-0.7-0.3-0.3-1.4C77,11,77,11.6,76.8,11.5l0.1-0.3l-0.2,0.3c-0.1-0.1,0-0.5,0.1-0.7c0,0,0.1,0,0.1,0
						c0-0.4-0.4-0.1-0.4-0.2l0.1,0.2c-0.5,0.1-0.9-0.5-1.5-0.1l-0.1,0.2c-0.5,0.2-0.1-0.3-0.6-0.3l0,0c-0.2,0.2-0.3,0.2-0.4,0.2
						c0.2-0.2,0-0.5,0.3-0.8c-0.5,0.3-0.3,0.2-0.9,0.9l0.1-0.4c-0.2,0.3-0.3,0.4-0.5,0.4c0.3-0.2,0.1-0.6,0.4-0.9
						c0-0.9-0.8,0.5-0.5-0.6c-0.6,0.9,0.1,0.7-0.1,0.8c-0.1,0.3-0.4,0.6-0.5,0.5c-0.1-0.1,0.3-1.3,0.1-1.4c0,0,0.1-0.1,0.1,0
						c0-0.3-0.3,0.2-0.3-0.2c-0.3,0.5-0.2-0.1-0.5,0.6l0.3-0.1c-0.2,0.1-0.7,0.9-0.8,0.4c0.1-0.1,0.2-0.3,0.3-0.4
						c0-0.2-0.2,0.1-0.2-0.2c0.3-0.7,0.4,0,0.8-0.5c0.1-0.3-0.5,0.4-0.1-0.4c-0.6,0.9-0.2-0.2-0.7,0.4l0.2-0.4
						c-0.1,0.1-0.2,0.2-0.3,0.2l0.3-0.5c-0.4,0.4-0.1-0.6-0.4-0.4c0.3,0.1-0.2,0.6-0.2,0.9c-0.6,0.4,0.3-1.2-0.2-1.2
						c0.1,0,0.1,0.4-0.1,0.5c0-0.1-0.1-0.3,0-0.6c-0.3,0-0.2,0.5-0.4,0.7c0.1-0.6-0.2,0.2-0.4,0.3l0.2-0.4c-0.2-0.4-0.5,0.9-0.6,0.4
						L70,8l-0.2,0.1l0.3-0.5c-0.3,0.3-0.3,0.2-0.4,0c-0.1,0.3-0.4,0.8-0.5,0.7c0-0.3,0.2-0.4,0-0.4c0.2-0.3,0.4-0.6,0.3-0.1
						c0.1-0.1,0.2-0.3,0.2-0.4c0-0.3-0.2-0.2-0.3-0.2c0,0,0,0.1,0,0.1l-0.6,0.5c0-0.2,0.1-0.3,0.2-0.4c-0.1,0-0.2,0.2-0.3,0.2
						c0.2-0.3,0.3-0.7,0.5-0.8L68.8,7c0.1-0.2,0-0.5,0.1-0.6c-0.1-0.3-0.7,0.5-0.8,0.2c0,0.1-0.1,0.1-0.2,0.2
						c-0.2-0.2-0.1-0.7-0.6-0.3l0.2-0.7c-0.2,0.1-0.2,0.9-0.6,1c-0.3,0.1,0.2-0.6,0.2-0.8c-0.2,0.3-0.7,0.9-0.7,0.2
						C66.6,6.1,66.6,6.2,66.7,6.2z M64.4,5.5c0.1-0.1,0.3-0.3,0.2,0C64.3,5.9,64.4,5.7,64.4,5.5z M60.6,5.1c0.1-0.1,0.1,0,0.1,0.2
						C60.6,5.2,60.6,5.2,60.6,5.1z M49.9,4C49.9,4,49.9,4,49.9,4C49.9,4.2,49.9,4.1,49.9,4z M49.8,3.7c0,0.1-0.1,0.1-0.1,0.2
						c0.1-0.1,0.1-0.1,0.1,0C49.9,3.7,49.9,3.6,49.8,3.7z M71,13l0-0.1C71.2,12.8,71.1,12.9,71,13z"/>
					<path d="M61.2,4.6c0,0.1-0.1,0.2-0.1,0.2C61.2,4.8,61.2,4.7,61.2,4.6z"/>
					<path d="M68.2,6.6C68.2,6.6,68.2,6.6,68.2,6.6C68.2,6.6,68.2,6.5,68.2,6.6L68.2,6.6z"/>
					<path d="M54.5,1.3c0,0.1,0,0.2,0,0.3C54.5,1.5,54.5,1.4,54.5,1.3z"/>
					<path d="M48.4,4l0.2-0.1c-0.1,0,0-0.1,0-0.2C48.5,3.9,48.4,4,48.4,4z"/>
					<path d="M48.5,0.8C48.5,0.8,48.5,0.8,48.5,0.8L48.3,1C48.4,1.1,48.6,0.9,48.5,0.8z"/>
					<path d="M48.9,2.5c0.2-0.4,0-0.3-0.1-0.3c0,0,0,0,0,0C48.6,2.7,48.8,2.6,48.9,2.5z"/>
					<path d="M48.8,2.2C48.8,2.2,48.7,2.2,48.8,2.2C48.6,2.4,48.7,2.3,48.8,2.2z"/>
					<path d="M49.4,3.9c0-0.1-0.2,0.5-0.2,0.3C49,4.6,49.8,3.7,49.4,3.9z"/>
					<polygon points="49.4,1.2 49.2,1.7 49.4,1.4 					"/>
					<path d="M50,1.9l-0.1-0.2c0,0.1-0.1,0.1-0.1,0.1C49.8,1.9,49.9,2,50,1.9z"/>
					<path d="M49.8,1.8c0,0-0.1,0-0.1,0C49.6,1.9,49.7,1.9,49.8,1.8z"/>
					<polygon points="49.7,1.2 49.7,1.3 49.7,1.4 					"/>
					<path d="M51.4,2.6l0.2-0.1c0.1-0.1,0.1-0.3,0-0.2C51.6,2.5,51.5,2.5,51.4,2.6z"/>
					<path d="M51.5,1.2c0,0.1,0,0.2-0.1,0.4L51.7,1L51.5,1.2z"/>
					<path d="M52,1.3c0.1-0.2,0.4-0.4,0.2-0.4C52.2,1,51.9,1.1,52,1.3z"/>
					<polygon points="54,3 54,3 53.6,3.9 					"/>
					<path d="M57.1,1.7c-0.1-0.3-0.3,0.6-0.3,0.2c-0.1,0.2,0,0.3-0.1,0.5C56.9,2.2,56.9,2.3,57.1,1.7z"/>
					<path d="M56.6,2.4c0,0-0.1,0.1-0.1,0.1C56.6,2.4,56.6,2.4,56.6,2.4z"/>
					<polygon points="78,16.6 78,16.9 78.1,16.5 					"/>
					<path d="M78.5,16l-0.2,0.6l0.3-0.5C78.6,16.2,78.5,16.2,78.5,16z"/>
					<path d="M64.6,4.2l-0.1,0.1c-0.1,0.2,0,0.2,0,0.2L64.6,4.2z"/>
					<polygon points="66,5.3 66,5.3 65.8,5.8 					"/>
					<path d="M67.6,5.2c0,0-0.2,0-0.2,0C67.6,5.2,67.3,5.9,67.6,5.2z"/>
				</g>
			</g>
		</g>
	</g>
</g>
<g>
	<g>
		<g>
			<g>
				<g>
					<path d="M0.1,17.5C0,17.5,0,17.9,0,18C0.2,17.9,0.1,17.4,0.1,17.5z"/>
					<polygon points="1.8,16.6 1.8,16.7 2.1,16.3 					"/>
					<path d="M3.5,16.6c-0.1-0.7-0.6,0.1-0.9-0.1l0-0.2l-0.1,0.6C2.8,16.8,3.2,16.4,3.5,16.6z"/>
					<path d="M4.4,18.1c-0.1-0.3,0.2-0.2-0.2-0.1c0,0,0,0,0,0.1C4.2,18.1,4.3,18.1,4.4,18.1z"/>
					<path d="M4.2,18.1C4,18.1,4.3,18.3,4.2,18.1L4.2,18.1z"/>
					<path d="M5,18l-0.2,0.2c0,0.2,0.2,0.2,0.2,0.3C5.2,18.4,5.1,18.2,5,18z"/>
					<path d="M5.2,17.4l-0.1,0.1C5.1,17.6,5.1,17.6,5.2,17.4z"/>
					<path d="M4.8,17.8l0.3-0.2c0-0.1,0-0.3-0.1,0.1C5,17.4,4.9,17.6,4.8,17.8z"/>
					<path d="M4.7,17.7c-0.1-0.2-0.3-0.3-0.1-0.5C4.2,17.2,4.3,17.8,4.7,17.7z"/>
					<path d="M3.6,15.8l-0.2-0.2l-0.1,0.2C3.3,15.8,3.6,16.1,3.6,15.8z"/>
					<path d="M6.4,18.3c0-0.2-0.1-0.4-0.1-0.6l-0.2,0.2C6.2,18,6.4,18.1,6.4,18.3z"/>
					<path d="M6.3,17.7l0.3-0.3C6.3,17.4,6.3,17.6,6.3,17.7z"/>
					<polygon points="5.3,16.6 4.8,17.2 5.3,16.6 					"/>
					<polygon points="7.4,18.4 7.2,18.7 7.5,18.2 					"/>
					<path d="M8,18.3c-0.1,0.3,0.1,0.5,0,0.7c0.2-0.1,0.3-0.3,0.5-0.5C8.3,18.6,8.2,18.5,8,18.3z"/>
					<path d="M8.7,18.1c-0.1,0.1-0.1,0.2-0.2,0.3C8.6,18.4,8.6,18.3,8.7,18.1z"/>
					<path d="M7,17.6C7,17.7,7,17.9,7.2,18L7,17.6C7.1,17.6,7,17.6,7,17.6z"/>
					<path d="M7.1,17.6L7.1,17.6c0.1,0,0.2,0,0.2,0C7.3,17.6,7.2,17.6,7.1,17.6z"/>
					<path d="M7,17.6C7,17.6,7,17.6,7,17.6C7,17.5,7,17.5,7,17.6z"/>
					<path d="M5.9,17c0.1-0.2,0.5-0.5,0.2-0.9C6,16.5,6.1,16.7,5.9,17z"/>
					<path d="M6.8,17l-0.3-0.1c0,0.1,0.1,0.3,0,0.4L6.8,17z"/>
					<polygon points="7,16.9 6.8,17 6.9,17.1 					"/>
					<path d="M8.3,17.7c0.1-0.2,0.2-0.2,0.4-0.2c-0.2-0.1-0.3-0.1-0.5-0.1C8.2,17.5,8.1,17.7,8.3,17.7z"/>
					<path d="M7.7,17.6C7.7,17.6,7.7,17.6,7.7,17.6C7.7,17.5,7.7,17.5,7.7,17.6z"/>
					<path d="M10,17.5C10,17.5,10,17.5,10,17.5C10,17.5,10,17.5,10,17.5L10,17.5z"/>
					<path d="M8.2,17.3c-0.1-0.1-0.2,0-0.3,0.2C8,17.4,8.1,17.4,8.2,17.3C8.2,17.3,8.2,17.3,8.2,17.3z"/>
					<path d="M9.1,17.9C9,17.8,9,17.8,8.9,17.7C9,17.8,9.1,18,9.1,17.9z"/>
					<path d="M7.8,17.7C7.7,17.7,7.7,17.7,7.8,17.7C7.8,17.8,7.8,17.8,7.8,17.7z"/>
					<path d="M7.8,17.7c0.1-0.1,0.1-0.2,0.2-0.3c-0.1,0-0.1,0.1-0.2,0.1C7.7,17.6,7.7,17.7,7.8,17.7z"/>
					<path d="M10.5,14.8c0,0.4-0.3,0.8-0.6,0.3c-0.3,0.3-0.1,1.6,0.1,2.3c0-0.2,0-0.3,0.3-0.6c-0.1-0.2-0.6-0.5-0.4-0.9
						c0.4-0.2,0.3,0.1,0.5,0.4c-0.1-0.5,0.5-0.7,0.4-1.4l-0.3,0.3C10.5,15.1,10.6,14.9,10.5,14.8z"/>
					<path d="M9.5,17.4l-0.1,0c0.1,0.1,0.2,0.2,0.4,0.5c0.2-0.2,0.2-0.3,0.2-0.5L9.5,17.4L9.5,17.4z"/>
					<path d="M8.9,17.4C9,17,9.3,16.8,9.1,16.4c-0.3,0-0.2,0.4-0.4,0.5C9.2,16.8,8.6,17.1,8.9,17.4c-0.1,0-0.2,0-0.3,0.1
						c0.1,0.1,0.2,0.1,0.3,0.2c0,0,0,0,0,0l0,0c0,0,0,0,0,0c0-0.1,0-0.1,0-0.1c0,0,0,0,0,0C8.9,17.5,8.9,17.5,8.9,17.4
						c0.1,0.1,0,0.1,0,0.2c0,0,0,0,0,0.1c0,0,0,0,0,0l0.5-0.2C9.3,17.4,9.2,17.4,8.9,17.4z"/>
					<path d="M6.4,15.3c0,0,0,0.1,0,0.1C6.4,15.3,6.4,15.3,6.4,15.3z"/>
					<path d="M6.6,15.5c0,0.1-0.1,0.2-0.2,0.2c-0.1-0.1,0-0.2,0-0.3c-0.1,0.1-0.3,0.3,0,0.5l0-0.1c0.2,0.1,0.5,0.7,0.4,0.7
						C6.8,16.2,6.7,15.9,6.6,15.5z"/>
					<path d="M7.8,16.4l0.4-0.2L8,15.8L8,16C7.7,15.9,7.8,16.2,7.8,16.4z"/>
					<polygon points="10.1,17.7 10,18.2 10.3,17.5 					"/>
					<polygon points="10.7,17.7 10.6,18.1 10.8,17.8 					"/>
					<path d="M42.2,13l0.1-0.1C42.2,12.9,42.2,13,42.2,13z"/>
					<path d="M41.2,13l0,0.2C41.3,13.1,41.3,13,41.2,13z"/>
					<path d="M24.3,17.7c0.2,0.4,0.4,0.9,0.4,0.5l-0.1-0.4C24.5,17.9,24.4,17.8,24.3,17.7z"/>
					<path d="M33.7,15.2c0,0,0-0.1-0.1-0.1c0,0.1-0.1,0.3-0.1,0.4C33.6,15.4,33.7,15.3,33.7,15.2z"/>
					<path d="M33.9,13.4l0.2,0.3C34.1,13.6,34,13.5,33.9,13.4z"/>
					<path d="M47.1,12.6l0.2-0.4C47.1,12.1,47.2,12.4,47.1,12.6z"/>
					<path d="M16.4,17.6c0.2,0.2,0.3,0.2,0.4,0.3C16.6,17.6,16.4,17.2,16.4,17.6z"/>
					<path d="M41.8,17.6c0.1-0.1,0.1-0.2,0.1-0.3C41.8,17.4,41.8,17.5,41.8,17.6z"/>
					<path d="M17.2,17.8c0,0-0.1-0.1-0.1-0.1c-0.1,0.1-0.2,0.1-0.4,0.1C16.9,18,17.1,18.1,17.2,17.8z"/>
					<path d="M65.2,13.1C65.2,13.1,65.3,13.1,65.2,13.1C65.3,13.1,65.3,13.1,65.2,13.1z"/>
					<path d="M70.5,17.5c-0.1,0-0.1,0-0.2,0C70.3,17.6,70.4,17.6,70.5,17.5z"/>
					<path d="M12.9,17.9C12.8,17.9,12.9,17.9,12.9,17.9L12.9,17.9z"/>
					<path d="M12.3,16.2c0,0,0-0.1,0-0.2C12.4,16.1,12.4,16.1,12.3,16.2z"/>
					<path d="M18.4,15.1C18.4,15.1,18.4,15.1,18.4,15.1C18.4,15.1,18.4,15.1,18.4,15.1z"/>
					<path d="M12.7,17.7c0,0.1,0.1,0.1,0.2,0.1C12.8,17.8,12.8,17.7,12.7,17.7z"/>
					<path d="M12.7,17.9c0,0-0.1,0-0.1,0C12.6,17.9,12.6,18,12.7,17.9z"/>
					<path d="M13.1,17.9c-0.1,0-0.1,0-0.2,0c0,0,0,0.1,0,0.1C12.9,17.9,13,17.9,13.1,17.9z"/>
					<path d="M55.5,14.2C55.5,14.2,55.5,14.2,55.5,14.2C55.7,14,55.6,14.1,55.5,14.2z"/>
					<path d="M27.5,13.3C27.5,13.3,27.5,13.3,27.5,13.3C27.5,13.3,27.5,13.3,27.5,13.3L27.5,13.3z"/>
					<path d="M27.9,12.9c-0.2,0.5-0.3,0.5-0.4,0.4l0.1,1.3L27.9,12.9z"/>
					<path d="M44.3,12.9l-0.3-0.4c0.4-0.6,0.6-0.4,0.3-1c-0.1,1.4-1.2,0.1-1.2,1.5L43,12.7c0.1,0,0.1-0.1,0.1-0.1
						c-0.4-0.7-0.3,1-0.8,0.8c-0.2-0.1-0.3-0.3-0.2-0.5l-0.4,0.3c-0.1,0-0.1-0.3,0-0.2l-0.6,0.1l0,0c-0.1,0.2-0.3,0.5-0.4,0.7
						c-0.1-0.2,0.1-0.1,0-0.3l-0.3,0.3c-0.1-0.4,0.1-0.7,0.4-0.6c-0.3-1.4-0.3,0.3-0.9-0.5l0.3-0.2c-0.2-0.8-0.4-0.5-0.8-1
						c0.1,0.3,0.7,1.2,0.3,1.6c-0.1-0.1-0.2-0.2-0.4,0.1c0-0.5-0.2-0.4-0.4-0.3l0-0.6c-0.3,0.2-0.2,0.5-0.4,0.8
						c-0.3-0.1-0.3-0.6-0.4-1c-0.4-0.1,0.3,0.8-0.2,0.9c-0.4-0.2-0.6,0-1.1,0.4c-0.3-0.2,0-0.4,0-0.6l-0.2,0.5c-0.1,0,0-0.2,0-0.2
						c-0.2,0.2,0,0.6-0.3,0.8c-0.1,0.7-0.6-1-1-0.2c-0.1-0.2,0-0.4,0-0.6c-0.5,0.5-0.4,0.4-0.9,1.1l-0.4-0.4c0.3,0.5-0.1,1-0.4,1.5
						c0.1,0.2,0.2,0.4,0.2,0.5l-0.5,0.3c-0.1-0.1,0-0.3,0.1-0.6c0,0.1-0.1,0.1-0.1,0.2c-0.2-0.2-0.1-0.6,0-1
						c0.1,0.1,0.1,0.3,0.2,0.4c0.1-0.4,0.2-0.8,0.2-1.2c0,0.1-0.1,0.1-0.2,0.2c0-0.1,0.1-0.2,0-0.3c0-0.1-0.1,0.1-0.1,0.2l-0.1-0.7
						l0,0.3l-0.6-0.5c-0.5,0.7-0.8,1.8-1.6,2.1c0.2-0.5,0-0.9,0.1-1.5c0.2,0.7,0.5-0.3,0.9-0.1c-0.2-0.1-0.1-0.4-0.1-0.5l-0.7,0.6
						c0-0.5-0.1-0.4-0.3-0.6c0.1,1-0.5,0.7-0.8,1c0-0.3,0.1-0.7,0.4-0.6c-0.4-0.8-0.5,1.2-0.8,0.5c0.1,0,0.1,0,0.2-0.1
						c-0.2,0.3-0.6,0.1-0.5-0.2l0.1,0c-0.5-0.1-1.6,0-1.7,0.8c0-0.1,0.1-1,0.1-1.2l-1,2.9c0.1-0.7-0.2-2.5,0.2-2.9
						c-0.1-0.1-0.3-0.2-0.5,0c0.1,0.1,0.2,1.1,0.1,1.1c-0.3-0.8-0.2-0.4-0.6-1.1c0.1,0.2,0,1.3-0.2,1.3c0-0.2,0-1.1,0.1-1.2
						l-0.5,1.1c0.1-0.2,0-1-0.1-1.3c0.1,0.2-0.4,0-0.6,0.1l0.2,0.3c-0.6-0.2-0.6,1.6-1.1,1.5c0.1-0.2,0.2-1.4-0.1-1.6
						c-0.1,0.6-0.6,2.8-1.1,3.2l-0.1-0.3l-0.4,0.4c0.2-0.9,0.9-2.7,1.3-3.4c-0.2-0.3-0.1-0.4-0.4-0.4c-0.1-0.3,0.2-0.5,0.3-0.5
						l-0.7-0.2c0,0.7-0.6,0.7-0.5,1.2l0.8-0.7c0,0.7-0.5,1.9-1,1.8c-0.1-0.3,0.1-1.2,0.1-1.4c-0.1,0.2-0.5,0.4-0.5,0.3l0.2-0.4
						c-0.3-0.3-0.5,0.9-0.8,0.2c-0.1,0-0.4-0.9-0.4-0.5c0.2,0.8,0.2,3.1,0.1,3.7c0-0.1-0.6-0.7-0.8-1.1c-0.2-0.6,0.3-1.4,0.1-1.9
						c0,0.2-0.1,0.4-0.2,0.5c-0.1-0.2,0.1-0.6-0.2-0.5c-0.1,0.7-0.6-0.1-0.1,0.6c-0.3,0.2-0.3-0.1-0.6-0.1c0.1,0.4-0.3,1.5-0.6,1.7
						c0-0.2,0-0.4-0.1-0.5c-0.6-0.1-0.8-0.4-1.4-0.4c0-0.2-0.3-0.4-0.2-0.7c-0.1,0.1-0.1,0.4-0.3,0.4c-0.3-0.6,0.4-0.1,0.1-0.8
						c0,0.4-0.4,0.5-0.6,0.8c0.1,0.6,0.5,0.1,0.8-0.1c0,0.8-0.4,1.7-1,2.1c-0.4,0.2-0.2-0.5-0.3-0.4c-0.8-0.2-0.7,1.5-1.4,0.9
						c-0.3-0.5,0-1.1-0.1-1.5c0.4-0.2,0.5,0.3,0.8,0.3l-0.3-0.3c0.1-0.2,0.3-0.3,0.5-0.2c-0.2-0.5-1.4-0.1-2-0.6
						c-0.1,0.2-0.3,0.4-0.2,0.6l0.2-0.1c0.2,0.4-0.4,0.6-0.1,0.8c-0.3,0.3-0.6,0.8-0.9,0.5L12,16c0,0.2,0.2,0.4,0.3,0.2
						c-0.2,0.3-0.6-0.8-0.7,0l0.3,0.4c-0.3,0.3-0.6,1-0.9,0.8c0.1,0.6,0.1-0.1,0.3,0.6c-0.2-0.9,0.8,0,0.5-0.9
						c0.2,0.8,0.4,0.4,0.7,1.1c0-0.2-0.1-0.4,0.2-0.3c0-0.1,0-0.1,0.1-0.2c0,0,0,0,0,0c0,0,0,0,0,0c0,0,0,0,0,0
						c-0.1-0.1-0.1-0.2-0.1-0.3c0.1-0.5,0.6-0.4,0.7-0.7c0.2,0.1-0.1,0.2,0,0.4l0.2-0.4c0,0.4,0.4,0.7,0,1l0.3,0
						c0.2,0.3,0.5,0.4,0.7,0.2c0.2,0.1,0.4-0.5,0.3-0.1l0.5-0.3l0,0.1c0.5,0.1,1.1-0.7,1.7,0.1c0.2-0.1,0.4-0.2,0.7-0.1l0.1,0.4
						c0.2-0.1,0.7,0.4,0.8,0c0.2,1,1.1,0.2,1.5,0.4l0-0.5c0.3,0,0.6-0.1,0.9-0.3l0-0.4c0.3-0.4,0.8,0.3,1.3,0.3c0,0.2-0.2,0.1-0.2,0
						c0.6,1,1.2-0.7,1.7,0c0.1-0.2,0.2-0.1,0.3,0c0,0,0,0,0,0c0,0,0,0,0.1,0c0.1,0.1,0.1,0.2,0.2,0.2c-0.1-0.1-0.1-0.2-0.1-0.2
						c0.1,0,0.3-0.1,0.4-0.2l0.1,0.5c0,0,0,0,0,0c0.1,0.2,0.1-0.2,0-0.6c0.1-0.1,0.1-0.2,0.2-0.3c0.1,0.8,0.4-0.3,0.5,0.6
						c0.1-0.4,0.7-0.3,0.8-1.1c0,0.1,0,0.2,0,0.2c0.2,0.1,0.3,0.2,0.5,0l0.1,0.6l0.4-0.8c0.2,0.4,0.3,0.6,0.1,1.1
						c0.5-0.7,0.4-0.3,0.9-1l0,0.4c0.2,0,0.4-0.5,0.5-0.2c0.4,0.8,1.8,0.1,2.7,0.8c-0.2-1.2,0.4,0.5,0.5-0.4c0.1,0.3,0.2,0.4,0,0.7
						c0.5-0.3,0.7,0.4,1-0.3c0.1,0.3-0.1,0.4-0.1,0.6c0-0.1,0.2-0.2,0.2-0.1c0,0.2-0.1,0.2-0.1,0.4c0.5,0,0.5-0.9,0.6-1.7
						c0.2,0.4,0.4,0.3,0.5-0.2c0.1,0.3,0.2,0.5-0.1,0.6c0.2,0,1,0.4,1-0.2c0.1,0.2,0.2,0,0.3,0c0.4,0,0.4,0.1,0.8,0l-0.1-0.1
						c0.2-0.8,0.3-0.2,0.6-0.3l0,0.1c0.7,0.6,0.3-0.3,1,0.4l0-0.5c0.1-1,0.6,0.6,1,0.2l-0.1-0.3c0.2-0.4,0.6,1.4,0.8,1.5
						c0,0.1-0.1,0.1-0.1,0.2c0.6,0.6,0.1-0.6,0.5-0.8c0.1,0.3-0.1,0.9,0.2,0.9c0.1,0.3,0.8-1.1,1.2-0.4c-0.1-0.3-0.2-0.5,0-0.7
						c0.3-0.1,0.8,1,1.1,0.2c0,0.1,0.1,0.1,0.1,0.2c0.2-0.2,0.7-0.3,0.9-0.8c0.2,1.7,1.4-0.8,1.4,0.7l0.7-0.1l0,0.2
						c0.4,0.1,0.6-0.3,0.8-0.6c0.1,0.1,0,0.2,0,0.3c0.6,0.3,0.7,0.2,1.3-0.5l0.1,0.5c0.1-0.3,0.9,0.8,1.6,0.2c0,0.1,0,0.2-0.1,0.2
						c0.7-0.6,1.7,1.4,2-0.4l0.5-0.4c-0.6-0.1,0.1-0.8-0.2-1.1c0.2-0.1,0.6,0.5,0.3,0.6l0-0.1c-0.1,0.9,0.8,0.3,0.7,1
						c1.2,0,2.4,0.5,3.5,0.5l-0.1-0.7l0.4,0c0.1,0.2,0.1,0.6-0.1,0.5c0.1,0.4,0.5-0.3,0.5-0.5c0.5,0.3-0.2,0.9-0.1,0.9l0.2-0.1
						L56,17.7c0.2-0.3,0.2-0.6,0.5-0.6c0.2,0.1,0.1,0.5,0.2,0.5c0,0.1,0,0.1,0.1,0l0.5,0.1l-0.2-0.6c0.2-0.3,0.5,0,0.2-0.6
						c0.3,1,1.8,0.4,2.1,0.7c0.3-0.4,0.6-0.4,1-0.4c-0.1-0.1-0.1-0.8,0.2-0.7c-0.1,1.3,0.6,0.6,0.8,1.6c-0.2-0.6,0.9-0.2,0.6-1.1
						c0.3,0.1,0,0.5,0.2,0.8c0.6-0.5,1.4,0.3,2.2,0.2c0-0.2-0.1-0.4,0.1-0.7l0.4,0.9c0.2-0.1,0.2-1,0.4-0.4c0-0.1-0.1-0.4,0-0.4
						c1.6,0.9,3.2-0.7,4.8,0.9c-0.2-0.3-0.1-0.4,0.1-0.4c-0.1-0.1,0-0.4,0-0.7l0.7,0.7c0.1-0.7,0.7,0,0.8-0.7L71.5,17
						c0.3-0.7-0.4-1.7-0.3-2.6c-0.3,0.8-0.8-1.3-1.3-0.1c-0.1-0.2,0.1-0.3,0-0.5c-0.1,0.4-0.3,0.5-0.6,0.3l0-0.1
						c-0.8,0.1-1.2-0.3-2.1-0.6l0.1,0.5c-0.2-0.1-0.2-0.2-0.3-0.3c-0.2,0.7,0.6,0,0.3,0.8c-0.3-1-1.4,0-1.6-1.1
						c-0.3,0,0.1,0.5-0.2,0.5l-0.1-0.3l-0.1,0.4c-0.2-0.1-0.3-0.4-0.3-0.7c0,0,0.1-0.1,0.2-0.1c-0.3-0.4-0.7,0.1-0.8,0l0.3,0.2
						c-0.8,0.3-1.8-0.1-2.6,0.5l0.1,0.2c-0.6,0.4-0.5-0.2-1.2-0.1l0-0.1c-0.1,0.2-0.3,0.3-0.5,0.3c0.2-0.3-0.3-0.5-0.1-0.8
						c-0.7,0.4-0.3,0.3-0.8,1.2l-0.1-0.4c-0.2,0.3-0.2,0.5-0.5,0.6c0.3-0.3-0.2-0.6,0.1-1c-0.7-0.8-1.1,0.8-1.4-0.4
						c-0.3,1,0.6,0.6,0.4,0.8c0.1,0.3-0.3,0.8-0.5,0.7c-0.2,0-0.4-1.3-0.9-1.3c0.1,0,0.1-0.1,0.1-0.1c-0.2-0.3-0.4,0.4-0.7-0.1
						c-0.2,0.6-0.3,0-0.4,0.8l0.5-0.2c-0.3,0.2-0.6,1.1-1.1,0.7c0-0.2,0.2-0.4,0.3-0.5c-0.1-0.2-0.3,0.2-0.4-0.1
						c0-0.8,0.6-0.2,1-0.8c-0.1-0.3-0.6,0.6-0.4-0.3c-0.2,1.1-0.6-0.1-0.9,0.7l0-0.5c-0.1,0.1-0.2,0.3-0.3,0.3l0.2-0.6
						c-0.3,0.5-0.6-0.5-0.9-0.2c0.6,0,0.1,0.6,0.4,0.9c-0.8,0.6-0.4-1.2-1.3-1c0.1-0.1,0.4,0.3,0.3,0.5c-0.2-0.1-0.4-0.3-0.5-0.5
						c-0.6,0.1,0.1,0.5-0.2,0.8c-0.2-0.6-0.3,0.2-0.5,0.4l0-0.5c-0.6-0.3-0.2,1-0.8,0.6l0.3-0.7l-0.3,0.2l0.1-0.5
						c-0.3,0.4-0.4,0.3-0.8,0.1c0.1,0.3,0,0.9-0.3,0.9c-0.2-0.3,0.1-0.5-0.3-0.4c0.1-0.3,0.2-0.7,0.4-0.2c0-0.2,0.1-0.3,0.1-0.5
						c-0.2-0.3-0.5-0.1-0.7-0.1c0.1,0,0.1,0,0.2,0.1l-0.6,0.7c-0.1-0.2,0-0.3,0.1-0.5c-0.1,0.1-0.2,0.3-0.4,0.3c0-0.4,0-0.8,0.3-1
						l-0.6,0.4c0-0.2-0.3-0.5-0.2-0.6C48,12,47.5,13,47.1,12.7c0,0.1-0.1,0.1-0.2,0.2c-0.4-0.1-0.7-0.6-1.2,0l-0.3-0.7
						c-0.4,0.2,0.3,0.9-0.3,1.1c-0.4,0.2-0.2-0.6-0.3-0.8c-0.2,0.4-0.6,1.1-1,0.5C44.1,12.8,44.2,12.9,44.3,12.9z M39.9,13.2
						c0.1-0.1,0.3-0.4,0.3-0.1C40.1,13.6,40,13.3,39.9,13.2z M33.1,14.3c0.1-0.2,0.2-0.1,0.3,0.1C33.3,14.4,33.2,14.4,33.1,14.3z
						 M14.2,17.5C14.2,17.5,14.2,17.5,14.2,17.5C14.4,17.7,14.3,17.6,14.2,17.5z M13.8,17.3c0,0.1,0,0.1,0,0.2
						c0-0.1,0.1-0.1,0.2-0.1C14,17.3,13.9,17.2,13.8,17.3z M56.8,17.4l-0.1-0.1C56.9,17.2,56.8,17.3,56.8,17.4z"/>
					<path d="M33.9,13.6c0,0.1,0,0.2,0,0.3C33.9,13.8,33.9,13.7,33.9,13.6z"/>
					<path d="M47.1,12.7C47.1,12.7,47.1,12.7,47.1,12.7C47.1,12.6,47.1,12.6,47.1,12.7L47.1,12.7z"/>
					<path d="M20,13.2c0.1,0.1,0.1,0.2,0.2,0.3C20.2,13.4,20.2,13.3,20,13.2z"/>
					<path d="M11.7,18.1l0.3-0.1c-0.1,0-0.2-0.1-0.2-0.2C11.7,17.9,11.7,18.1,11.7,18.1z"/>
					<path d="M9.5,15.1c0,0.1-0.1,0-0.1,0.1l0,0.2C9.5,15.4,9.6,15.2,9.5,15.1z"/>
					<path d="M11.4,16.5c0-0.4-0.2-0.3-0.4-0.2c0,0,0,0,0,0C11.1,16.9,11.3,16.7,11.4,16.5z"/>
					<path d="M11,16.3c-0.1,0-0.1,0-0.2,0C10.9,16.5,10.9,16.4,11,16.3z"/>
					<path d="M13.3,17.6c-0.1-0.1-0.1,0.5-0.1,0.4C13.1,18.4,13.8,17.3,13.3,17.6z"/>
					<polygon points="11.3,15.1 11.4,15.7 11.5,15.2 					"/>
					<path d="M12.7,15.5l-0.3-0.1c0,0.1,0,0.1-0.1,0.2C12.5,15.6,12.7,15.7,12.7,15.5z"/>
					<path d="M12.4,15.6c-0.1,0-0.2,0-0.2,0.1C12.2,15.6,12.3,15.6,12.4,15.6z"/>
					<polygon points="11.7,15 11.8,15.1 12,15.1 					"/>
					<path d="M15.8,15.6l0.3-0.1c0-0.2-0.1-0.3-0.2-0.2C15.9,15.4,15.8,15.5,15.8,15.6z"/>
					<path d="M14.9,14.3c0.1,0.1,0.1,0.2,0.1,0.4l0-0.6L14.9,14.3z"/>
					<path d="M15.8,14.1c0-0.2,0.5-0.5,0.1-0.5C15.8,13.8,15.5,14,15.8,14.1z"/>
					<polygon points="20.5,15 20.4,15 20.4,16 					"/>
					<path d="M24.7,12.5c-0.4-0.2-0.1,0.6-0.4,0.3c-0.1,0.2,0.3,0.3,0.2,0.5C24.7,13.1,24.8,13.2,24.7,12.5z"/>
					<path d="M24.4,13.3c0,0-0.1,0.1-0.1,0.2C24.4,13.4,24.4,13.4,24.4,13.3z"/>
					<polygon points="71.3,18 71.6,18.3 71.4,17.9 					"/>
					<path d="M71.8,17.3l0.1,0.6l0.1-0.6C71.9,17.4,71.8,17.4,71.8,17.3z"/>
					<path d="M39.2,11.9l0,0.2c0,0.2,0.1,0.2,0.2,0.2L39.2,11.9z"/>
					<polygon points="42.5,12.4 42.4,12.4 42.5,12.9 					"/>
					<path d="M45.2,11.6c-0.1,0-0.2,0.1-0.4,0.1C45.1,11.6,45.2,12.4,45.2,11.6z"/>
				</g>
			</g>
		</g>
	</g>
</g>
</svg>
