<?xml version="1.0" encoding="utf-8"?>
<!-- Generator: Adobe Illustrator 20.1.0, SVG Export Plug-In . SVG Version: 6.00 Build 0)  -->
<svg version="1.1" id="Layer_1" xmlns="http://www.w3.org/2000/svg" xmlns:xlink="http://www.w3.org/1999/xlink" x="0px" y="0px"
	 viewBox="0 0 612 792" style="enable-background:new 0 0 612 792;" xml:space="preserve">
<style type="text/css">
	.st0{fill:#FFFFFF;stroke:#000000;stroke-miterlimit:10;}
	.st1{fill:#020202;stroke:#000000;stroke-miterlimit:10;}
	.st2{stroke:#000000;stroke-miterlimit:10;}
</style>
<path class="st0" d="M123.4,137.6h-16.7c-6.6,0-12-5.4-12-12v-9.9c0-6.6,5.4-12,12-12h16.7c6.6,0,12,5.4,12,12v9.9
	C135.4,132.2,130,137.6,123.4,137.6z"/>
<path class="st0" d="M184.4,140h-14.9c-6.6,0-12-5.4-12-12v-14.9c0-6.6,5.4-12,12-12h14.9c6.6,0,12,5.4,12,12V128
	C196.4,134.6,191,140,184.4,140z"/>
<circle class="st1" cx="108.4" cy="117.3" r="6.7"/>
<circle class="st2" cx="173.1" cy="120.6" r="7.7"/>
</svg>
