<?xml version="1.0" encoding="utf-8"?>
<!-- Generator: Adobe Illustrator 20.1.0, SVG Export Plug-In . SVG Version: 6.00 Build 0)  -->
<svg version="1.1" id="Layer_1" xmlns="http://www.w3.org/2000/svg" xmlns:xlink="http://www.w3.org/1999/xlink" x="0px" y="0px"
	 viewBox="0 0 80.7 32.9" style="enable-background:new 0 0 80.7 32.9;" xml:space="preserve">
<g>
	<g>
		<g>
			<g>
				<g>
					<path d="M36.5,0.4c0.1,0-0.1-0.4-0.1-0.4C36.3,0.1,36.5,0.5,36.5,0.4z"/>
					<polygon points="35.9,1.7 35.9,1.5 35.9,2 					"/>
					<path d="M35.1,2.1c0.4,0.6,0.3-0.2,0.5-0.1l0.1,0.1l-0.2-0.6C35.4,1.7,35.3,2.2,35.1,2.1z"/>
					<path d="M34,0.9c0.1,0.2,0,0.3,0.1,0C34.1,0.9,34.1,0.9,34,0.9C34.1,0.9,34.1,0.9,34,0.9z"/>
					<path d="M34.1,0.8C34.2,0.8,34,0.7,34.1,0.8L34.1,0.8z"/>
					<path d="M33.8,1.2l0-0.3c-0.1-0.1-0.2-0.1-0.2-0.3C33.5,0.8,33.6,1,33.8,1.2z"/>
					<path d="M33.9,1.7l0-0.1C33.9,1.5,33.8,1.5,33.9,1.7z"/>
					<path d="M33.9,1.3l0,0.3c0.1,0.1,0.2,0.3,0-0.1C34,1.7,33.9,1.5,33.9,1.3z"/>
					<path d="M34.1,1.4c0.1,0.1,0.3,0.2,0.2,0.4C34.5,1.6,34.2,1.2,34.1,1.4z"/>
					<path d="M35.4,2.8l0.2,0.2l0-0.3C35.5,2.8,35.3,2.6,35.4,2.8z"/>
					<path d="M32.9,1.2c0.1,0.1,0.2,0.4,0.3,0.5l0-0.2C33.1,1.4,33,1.4,32.9,1.2z"/>
					<path d="M33.2,1.7l0,0.3C33.3,2,33.3,1.8,33.2,1.7z"/>
					<polygon points="34.2,2.4 34.2,1.8 34.2,2.5 					"/>
					<polygon points="32.4,1.4 32.3,1 32.4,1.5 					"/>
					<path d="M32.1,1.6c-0.1-0.3-0.3-0.4-0.3-0.6c-0.1,0.1,0,0.3,0,0.6C31.8,1.4,31.9,1.4,32.1,1.6z"/>
					<path d="M31.8,1.9c0-0.1,0-0.2,0-0.3C31.8,1.6,31.8,1.7,31.8,1.9z"/>
					<path d="M32.9,2c0-0.1-0.2-0.3-0.3-0.4L32.9,2C32.9,2,32.9,2,32.9,2z"/>
					<path d="M32.9,2L32.9,2c-0.1,0-0.1,0-0.1,0C32.8,2,32.8,2,32.9,2z"/>
					<path d="M32.9,2C32.9,2,32.9,2,32.9,2C33,2,33,2.1,32.9,2z"/>
					<path d="M33.7,2.2c0,0.3,0,0.6,0.3,0.8C33.9,2.8,33.7,2.6,33.7,2.2z"/>
					<path d="M33.2,2.5l0.2,0c0-0.1-0.1-0.2-0.2-0.4L33.2,2.5z"/>
					<polygon points="33.2,2.6 33.2,2.5 33.2,2.5 					"/>
					<path d="M32.2,2.1c0,0.2,0,0.2-0.1,0.3c0.1,0,0.2,0,0.3,0C32.4,2.3,32.3,2.1,32.2,2.1z"/>
					<path d="M32.6,2.1C32.6,2.1,32.6,2.1,32.6,2.1C32.6,2.2,32.6,2.2,32.6,2.1z"/>
					<path d="M31.4,2.8C31.4,2.8,31.4,2.8,31.4,2.8C31.4,2.8,31.4,2.8,31.4,2.8L31.4,2.8z"/>
					<path d="M32.5,2.5c0.1,0,0.1-0.1,0.1-0.2C32.5,2.4,32.5,2.4,32.5,2.5C32.4,2.5,32.4,2.6,32.5,2.5z"/>
					<path d="M31.7,2.2c0.1,0.1,0.1,0.1,0.2,0.2C31.8,2.2,31.7,2.1,31.7,2.2z"/>
					<path d="M32.5,2.1C32.5,2,32.5,2,32.5,2.1C32.4,2,32.5,2,32.5,2.1z"/>
					<path d="M32.5,2.1c0,0.1,0,0.2,0,0.3C32.5,2.3,32.6,2.2,32.5,2.1C32.5,2.1,32.5,2.1,32.5,2.1z"/>
					<path d="M32.3,5.4c-0.2-0.4-0.1-0.8,0.2-0.4c0-0.3-0.6-1.5-1-2.1c0.1,0.2,0.1,0.3,0.1,0.6c0.1,0.2,0.5,0.3,0.5,0.7
						c-0.1,0.3-0.2-0.1-0.4-0.2c0.3,0.4,0.1,0.8,0.4,1.4L32.2,5C32.2,5.1,32.2,5.3,32.3,5.4z"/>
					<path d="M31.7,2.8L31.7,2.8c-0.1-0.1-0.2-0.2-0.4-0.5c0,0.2,0,0.4,0.1,0.5L31.7,2.8L31.7,2.8z"/>
					<path d="M32,2.6c0.1,0.4,0.1,0.6,0.3,1c0.1-0.1,0-0.4,0-0.6C32.1,3.2,32.3,2.8,32,2.6c0,0,0.1-0.1,0.1-0.1
						c-0.1,0-0.1-0.1-0.2-0.1c0,0,0,0,0,0l0,0c0,0,0,0,0,0c0,0,0.1,0.1,0,0c0,0,0,0,0,0C32,2.5,32,2.5,32,2.6
						c-0.1,0-0.1-0.1-0.1-0.2c0,0,0,0,0-0.1c0,0,0,0,0,0l-0.2,0.3C31.8,2.7,31.9,2.7,32,2.6z"/>
					<path d="M34.2,4C34.2,3.9,34.2,3.9,34.2,4C34.2,3.9,34.2,4,34.2,4z"/>
					<path d="M34,3.8c0-0.1-0.1-0.2,0-0.2c0.1,0.1,0.1,0.2,0.1,0.3c0-0.1,0-0.3-0.2-0.5l0,0.1c-0.2-0.1-0.5-0.5-0.5-0.6
						C33.6,3.2,33.8,3.4,34,3.8z"/>
					<path d="M33,3.3l-0.1,0.3l0.3,0.3l-0.1-0.2C33.2,3.7,33.1,3.4,33,3.3z"/>
					<polygon points="31.3,2.6 31.1,2.2 31.3,2.8 					"/>
					<polygon points="31,2.8 30.9,2.4 30.9,2.6 					"/>
					<path d="M17,14.4l0,0.1C17,14.5,17.1,14.5,17,14.4z"/>
					<path d="M17.5,14.2l-0.1-0.2C17.5,14.2,17.5,14.2,17.5,14.2z"/>
					<path d="M24.1,5.9c-0.2-0.3-0.6-0.8-0.4-0.4l0.2,0.4C23.9,5.8,24,5.9,24.1,5.9z"/>
					<path d="M20.4,10.4c0,0,0.1,0.1,0.1,0.1c0-0.1-0.1-0.3-0.1-0.4C20.4,10.2,20.4,10.3,20.4,10.4z"/>
					<path d="M21.1,12.1l-0.2-0.2C20.9,12,21,12,21.1,12.1z"/>
					<path d="M14.7,16l0.1,0.4C14.9,16.4,14.8,16.2,14.7,16z"/>
					<path d="M28.2,4.2C28,4.1,28,4.1,27.9,4.1C28.1,4.2,28.3,4.6,28.2,4.2z"/>
					<path d="M15.3,10.1c0,0.1,0,0.2,0.1,0.3C15.4,10.3,15.4,10.2,15.3,10.1z"/>
					<path d="M27.7,4.2C27.7,4.2,27.7,4.2,27.7,4.2c0.1,0,0.1-0.1,0.2-0.1C27.7,3.9,27.6,3.9,27.7,4.2z"/>
					<path d="M5.4,19.8C5.3,19.8,5.3,19.8,5.4,19.8C5.3,19.8,5.4,19.8,5.4,19.8z"/>
					<path d="M0.9,17C0.9,17,0.9,16.9,0.9,17C1,16.9,0.9,16.9,0.9,17z"/>
					<path d="M29.8,3.1C29.9,3,29.8,3.1,29.8,3.1L29.8,3.1z"/>
					<path d="M30.8,4.5c0,0.1,0,0.1,0.1,0.2C30.8,4.6,30.8,4.6,30.8,4.5z"/>
					<path d="M28.2,6.9C28.2,6.9,28.2,6.9,28.2,6.9C28.2,7,28.2,7,28.2,6.9z"/>
					<path d="M30,3.2c0,0-0.1-0.1-0.1-0.1C29.9,3.2,29.9,3.2,30,3.2z"/>
					<path d="M29.9,3.1C29.9,3.1,29.9,3.1,29.9,3.1C29.9,3,29.9,3,29.9,3.1z"/>
					<path d="M29.7,3.2c0,0,0.1,0,0.1,0C29.8,3.1,29.8,3.1,29.7,3.2C29.8,3.1,29.8,3.1,29.7,3.2z"/>
					<path d="M9.8,16.5C9.8,16.5,9.8,16.5,9.8,16.5C9.8,16.7,9.8,16.6,9.8,16.5z"/>
					<path d="M24.4,10.7C24.4,10.7,24.4,10.7,24.4,10.7C24.4,10.7,24.4,10.7,24.4,10.7L24.4,10.7z"/>
					<path d="M24.3,11.1c-0.1-0.5,0-0.5,0.1-0.4l-0.6-1.1L24.3,11.1z"/>
					<path d="M16,15l0.3,0.3c0.1,0.7-0.1,0.5,0.2,1c-0.5-1.2,0.5-0.4,0-1.6l0.2,0.2c0,0,0,0.1,0,0.1c0.5,0.5-0.3-1,0.1-0.9
						c0.1,0.1,0.3,0.2,0.3,0.4l0.1-0.4c0.1,0,0.2,0.2,0.1,0.2l0.3-0.2l0,0c0-0.2-0.1-0.6-0.1-0.7c0.2,0.1,0,0.1,0.1,0.3l0-0.4
						c0.2,0.3,0.2,0.7,0.1,0.7c0.7,1.2,0-0.4,0.7,0.2l-0.1,0.2c0.4,0.7,0.4,0.3,0.8,0.7c-0.1-0.2-0.8-0.9-0.8-1.3
						c0.1,0.1,0.2,0.1,0.2-0.2c0.2,0.4,0.2,0.3,0.4,0.2l0.3,0.6c0.1-0.2-0.1-0.5-0.1-0.8c0.2,0,0.4,0.4,0.6,0.8
						c0.3,0-0.5-0.7-0.3-0.9c0.3,0.1,0.3-0.2,0.4-0.6c0.2,0.1,0.1,0.4,0.3,0.5l-0.1-0.5c0,0,0.1,0.1,0.1,0.2c0-0.2-0.3-0.6-0.2-0.8
						c-0.2-0.7,0.7,0.8,0.6,0c0.1,0.1,0.1,0.4,0.3,0.6c0-0.6,0.1-0.4,0-1.2l0.4,0.3c-0.3-0.4-0.4-1-0.4-1.5
						c-0.1-0.2-0.3-0.4-0.3-0.4l0.1-0.4c0.1,0.1,0.1,0.3,0.2,0.6c0-0.1,0-0.1,0-0.2c0.2,0.2,0.3,0.5,0.4,0.9
						c-0.1-0.1-0.2-0.2-0.2-0.3c0.1,0.4,0.2,0.8,0.4,1.1c0-0.1,0-0.1,0-0.2c0,0.1,0.1,0.2,0.1,0.2c0,0.1,0-0.1,0-0.2l0.3,0.6
						l-0.1-0.3l0.5,0.3c-0.1-0.8-0.3-1.8-0.1-2.2c0.1,0.5,0.3,0.8,0.6,1.4c-0.4-0.6-0.2,0.4-0.4,0.3c0.1,0,0.2,0.3,0.2,0.4l0.1-0.7
						c0.2,0.5,0.2,0.3,0.4,0.5c-0.5-0.9,0-0.7,0-1.1c0.1,0.3,0.3,0.6,0.1,0.6c0.5,0.6-0.2-1.2,0.2-0.7c0,0-0.1,0,0,0.2
						c0-0.3,0.3-0.2,0.4,0.1l0,0c0.3,0,0.8-0.4,0.5-1.2c0,0.1,0.4,1,0.4,1.1L23.3,8c0.3,0.7,1.1,2.2,1.1,2.7
						c0.1,0.1,0.2,0.1,0.3-0.2c-0.1-0.1-0.5-0.9-0.5-1c0.5,0.7,0.3,0.3,0.8,0.9c-0.1-0.1-0.5-1.2-0.4-1.2c0.1,0.2,0.5,1,0.5,1.2
						l-0.2-1.1c0,0.2,0.4,0.9,0.6,1.1c-0.1-0.2,0.2-0.1,0.3-0.2L25.4,10c0.4,0-0.4-1.6-0.1-1.6c0.1,0.2,0.5,1.3,0.7,1.4
						c-0.2-0.6-0.8-2.7-0.8-3.2l0.2,0.3l0-0.4c0.2,0.8,0.6,2.7,0.7,3.4c0.2,0.2,0.2,0.3,0.3,0.2c0.2,0.3,0.1,0.5,0.1,0.5l0.5,0
						c-0.3-0.6,0-0.7-0.2-1.2l-0.1,0.8c-0.3-0.6-0.5-1.8-0.2-1.9c0.2,0.2,0.4,1.1,0.5,1.3c-0.1-0.2,0.1-0.5,0.2-0.4l0,0.4
						c0.3,0.2-0.1-0.9,0.3-0.4c0.1,0,0.5,0.7,0.4,0.3c-0.4-0.7-1.4-2.8-1.6-3.4c0,0,0.6,0.5,0.9,0.8c0.3,0.5,0.4,1.4,0.7,1.8
						c-0.1-0.2-0.1-0.4-0.1-0.5C28,8.4,28,8.9,28.2,8.7c-0.3-0.6,0.3-0.1-0.2-0.6c0.1-0.2,0.2,0.1,0.4,0c-0.2-0.4-0.5-1.4-0.4-1.7
						c0.1,0.2,0.2,0.4,0.2,0.4c0.3-0.1,0.6,0.1,0.9,0c0.1,0.1,0.3,0.3,0.4,0.6c0-0.1-0.1-0.4,0-0.4c0.4,0.5-0.1,0.2,0.3,0.8
						c-0.2-0.4,0-0.6,0-0.9c-0.3-0.5-0.3,0-0.3,0.3c-0.3-0.8-0.5-1.7-0.4-2.1c0.1-0.3,0.3,0.5,0.3,0.3c0.5,0-0.3-1.5,0.3-1.1
						c0.4,0.4,0.4,1,0.6,1.3c-0.1,0.3-0.4-0.2-0.5-0.1l0.3,0.2c0,0.2,0,0.4-0.2,0.3c0.3,0.4,0.7-0.2,1.2,0c0-0.2,0-0.4-0.1-0.6
						l-0.1,0.1c-0.3-0.4-0.1-0.6-0.3-0.8c0-0.3,0-0.8,0.3-0.7l0.3,0.5c-0.1-0.2-0.3-0.3-0.2-0.1c0-0.3,0.6,0.6,0.4-0.1l-0.3-0.3
						c0-0.3-0.1-1,0.2-0.9c-0.3-0.5,0,0.1-0.4-0.5c0.5,0.8-0.4,0.2,0.1,0.9c-0.5-0.7-0.4-0.2-0.8-0.8C30,3,30.1,3.1,30,3.1
						c0,0.1,0,0.1,0,0.2c0,0,0,0,0,0c0,0,0,0,0,0c0,0,0,0,0,0c0.1,0.1,0.1,0.2,0.2,0.2c0.1,0.5-0.1,0.5-0.1,0.8
						c-0.1-0.1-0.1-0.2-0.2-0.4l0,0.4c-0.2-0.4-0.5-0.6-0.4-0.9l-0.2,0.1c-0.2-0.2-0.4-0.2-0.4,0c-0.1-0.1,0,0.5-0.1,0.2L28.7,4
						l0-0.1c-0.3,0.1-0.3,0.9-0.9,0.3c0,0.1-0.1,0.3-0.3,0.3l-0.2-0.3c-0.1,0.2-0.5-0.2-0.4,0.2c-0.6-0.9-0.7,0.1-1,0l0.2,0.5
						c-0.2,0-0.2,0.2-0.3,0.5L26,5.7c0,0.4-0.5-0.1-0.7,0c-0.1-0.2,0-0.2,0.1-0.1c-0.7-0.8-0.3,0.9-0.9,0.4c0,0.2-0.1,0.1-0.2,0.1
						c0,0,0,0,0,0c0,0,0,0,0,0C24.2,6,24.2,6,24.1,5.9c0.1,0.1,0.1,0.2,0.2,0.2c0,0-0.1,0.1-0.1,0.3l-0.2-0.4c0,0,0,0,0,0
						c-0.1-0.1,0,0.2,0.2,0.5c0,0.1,0,0.2,0,0.3c-0.4-0.7-0.1,0.3-0.5-0.4c0.1,0.4-0.3,0.4,0.1,1.2c0-0.1-0.1-0.1-0.1-0.2
						c-0.1-0.1-0.2-0.1-0.2,0.2l-0.3-0.5l0.2,0.8C23,7.7,22.9,7.5,22.8,7c0,0.8-0.1,0.3,0,1.1l-0.2-0.4c-0.1,0.1,0,0.6-0.2,0.3
						c-0.5-0.6-0.9,0.3-1.7-0.1c0.6,1-0.4-0.4-0.1,0.5c-0.1-0.2-0.3-0.4-0.3-0.6c-0.1,0.4-0.5-0.2-0.4,0.5c-0.1-0.2-0.1-0.4-0.2-0.5
						c0,0.1,0,0.3-0.1,0.1c-0.1-0.1-0.1-0.2-0.1-0.4c-0.2,0.2,0.1,0.9,0.4,1.7c-0.3-0.3-0.3-0.2-0.2,0.3c-0.1-0.2-0.3-0.4-0.2-0.6
						c-0.1,0-0.7-0.1-0.4,0.5c-0.1-0.1-0.1,0-0.1,0.1c-0.2,0.1-0.2,0-0.4,0.1l0.1,0.1c0.2,0.7-0.1,0.2-0.2,0.4l0-0.1
						c-0.6-0.4,0,0.3-0.6-0.1l0.2,0.4c0.4,1-0.6-0.4-0.6,0l0.2,0.2c0,0.4-0.9-1.1-1-1.2c-0.1-0.1,0-0.1,0-0.2
						c-0.5-0.4,0.2,0.6,0.1,0.8c-0.2-0.3-0.3-0.8-0.5-0.8c-0.2-0.2,0,1.2-0.4,0.7c0.1,0.2,0.3,0.4,0.3,0.7c-0.1,0.2-0.8-0.7-0.6,0.1
						c0-0.1-0.1-0.1-0.1-0.2c0,0.2-0.2,0.5-0.1,0.9c-0.8-1.5-0.4,1.1-1-0.3L14,11.2l-0.1-0.1c-0.3,0-0.2,0.4-0.1,0.7
						c-0.1-0.1-0.1-0.2-0.1-0.3c-0.5-0.1-0.5-0.1-0.4,0.8L13,11.9c0,0.3-0.8-0.5-0.9,0.2c0-0.1-0.1-0.1-0.1-0.2
						c-0.1,0.7-1.4-0.9-0.8,0.8l-0.1,0.5c0.4,0,0.3,0.7,0.5,1c-0.1,0.2-0.5-0.4-0.4-0.5l0.1,0.1c-0.3-0.9-0.5-0.1-0.8-0.7
						c-0.6,0.3-1.4,0.1-2,0.3L8.9,14L8.7,14c-0.1-0.1-0.3-0.5-0.1-0.5c-0.2-0.3-0.1,0.4,0,0.6c-0.4-0.1-0.2-0.8-0.3-0.8l-0.1,0.1
						l0.1,0.1c0,0.3,0.1,0.6,0,0.7c-0.2-0.1-0.2-0.4-0.3-0.4c0,0,0-0.1-0.1,0l-0.3,0.1l0.3,0.5c0,0.3-0.2,0.1,0.1,0.6
						c-0.6-0.8-1.1,0.1-1.3-0.1c0,0.5-0.1,0.5-0.4,0.6c0.1,0.1,0.4,0.7,0.2,0.7c-0.5-1.2-0.5-0.4-1.1-1.2c0.4,0.5-0.4,0.4,0.2,1.1
						c-0.2,0-0.2-0.5-0.4-0.7c-0.1,0.6-0.9,0-1.2,0.4c0.1,0.2,0.2,0.4,0.3,0.7l-0.6-0.7c0,0.1,0.3,1-0.1,0.5
						c0.1,0.1,0.2,0.3,0.2,0.4c-1.1-0.4-1.3,1.4-2.8,0.3c0.2,0.3,0.2,0.3,0.1,0.4c0.1,0,0.2,0.4,0.3,0.6l-0.6-0.5
						c0.2,0.6-0.3,0.2-0.1,0.8l0.1-0.2c0.2,0.7,0.9,1.4,1.3,2.3c-0.2-0.8,0.9,1,0.7-0.3c0.1,0.2,0.1,0.3,0.2,0.5
						c-0.1-0.4-0.1-0.5,0.2-0.4l0,0.1c0.4-0.3,0.7,0,1.3,0L4,19.6c0.1,0,0.2,0.1,0.3,0.2c-0.2-0.7-0.3,0.1-0.5-0.7
						c0.5,0.8,0.7-0.3,1.3,0.7c0.2-0.1-0.3-0.5-0.1-0.5l0.2,0.3L5,19.1c0.1,0,0.3,0.3,0.4,0.6c0,0,0,0.1-0.1,0.1
						c0.3,0.3,0.3-0.3,0.4-0.2l-0.2-0.1c0.3-0.4,1-0.3,1.1-1.1l-0.1-0.2c0.1-0.5,0.4,0.1,0.6-0.2l0,0.1c0-0.2,0-0.4,0.1-0.4
						c0,0.3,0.4,0.4,0.4,0.7c0.2-0.6,0-0.4-0.1-1.3l0.2,0.3c-0.1-0.3-0.1-0.5,0-0.7c0,0.4,0.3,0.5,0.4,0.9c0.7,0.6,0.2-1,0.8,0
						c-0.3-1-0.5-0.4-0.5-0.6c-0.2-0.3-0.2-0.8,0-0.7c0.1,0,0.7,1.1,1,1c0,0,0,0.1,0,0.1c0.2,0.2,0.1-0.4,0.4-0.1
						c-0.2-0.6,0.2,0-0.1-0.8l-0.2,0.3c0.1-0.3-0.2-1.2,0.3-0.9c0,0.2,0.1,0.4,0.1,0.5c0.2,0.2,0.1-0.2,0.2,0
						c0.3,0.7-0.3,0.3-0.2,0.9c0.2,0.3,0.1-0.7,0.3,0.2c-0.3-1,0.3,0,0.2-0.8l0.2,0.4c0-0.1,0-0.3,0-0.3l0.1,0.6
						c-0.1-0.5,0.5,0.3,0.5,0c-0.3,0.2-0.3-0.5-0.6-0.7c0.1-0.8,0.7,1,1.1,0.6c0,0.1-0.3-0.2-0.3-0.4c0.1,0.1,0.3,0.2,0.5,0.4
						c0.2-0.2-0.2-0.4-0.2-0.7c0.3,0.5,0-0.3,0.1-0.5l0.2,0.4c0.5,0.1-0.3-1,0.1-0.7l0.1,0.7l0.1-0.2l0.2,0.5c0-0.4,0.1-0.4,0.3-0.3
						c-0.2-0.3-0.3-0.8-0.2-0.9c0.2,0.2,0.1,0.4,0.3,0.3c0.1,0.3,0.2,0.7-0.1,0.3c0.1,0.1,0.1,0.3,0.1,0.4c0.2,0.3,0.3-0.1,0.4-0.1
						c0,0-0.1,0-0.1-0.1l0-0.7c0.1,0.1,0.1,0.3,0.2,0.4c0-0.1,0-0.3,0.1-0.4c0.1,0.4,0.3,0.7,0.3,1l0.1-0.5c0.1,0.1,0.3,0.4,0.4,0.5
						c0.3,0.1,0.1-0.9,0.4-0.7c0-0.1,0-0.2,0-0.2c0.2,0,0.6,0.4,0.6-0.2l0.4,0.6c0.1-0.2-0.5-0.7-0.3-1.1c0.1-0.3,0.3,0.5,0.5,0.7
						c0-0.4-0.1-1.1,0.3-0.7C16.1,15,16,15,16,15z M18.1,13.7c0,0.1,0,0.4-0.1,0.2C17.8,13.4,18,13.6,18.1,13.7z M21.1,11.1
						c0,0.2-0.1,0.1-0.2,0C20.9,11,21,11,21.1,11.1z M29.3,3.8C29.3,3.8,29.3,3.8,29.3,3.8C29.2,3.6,29.2,3.7,29.3,3.8z M29.6,3.9
						c0-0.1,0-0.1-0.1-0.2c0,0.1,0,0.1-0.1,0.1C29.5,3.9,29.6,4,29.6,3.9z M7.8,13.8L7.8,13.8C7.9,14.1,7.9,14,7.8,13.8z"/>
					<path d="M21,11.9c0-0.1-0.1-0.1-0.1-0.2C20.9,11.8,20.9,11.8,21,11.9z"/>
					<path d="M14.7,15.9C14.7,15.9,14.7,15.9,14.7,15.9C14.7,15.9,14.7,16,14.7,15.9L14.7,15.9z"/>
					<path d="M28.1,9C28.1,9,28,8.9,28,8.8C28,8.9,28.1,9,28.1,9z"/>
					<path d="M30.4,2.6l-0.1,0.2c0.1-0.1,0.1,0,0.2,0.1C30.4,2.8,30.3,2.6,30.4,2.6z"/>
					<path d="M32.7,4.8C32.7,4.8,32.7,4.8,32.7,4.8l-0.1-0.3C32.6,4.6,32.6,4.8,32.7,4.8z"/>
					<path d="M31.1,4c0.2,0.4,0.2,0.2,0.3,0.1c0,0,0,0,0,0C31.2,3.6,31.2,3.8,31.1,4z"/>
					<path d="M31.4,4.1C31.4,4.1,31.5,4,31.4,4.1C31.4,3.8,31.4,4,31.4,4.1z"/>
					<path d="M29.8,3.5c0.1,0.1-0.2-0.5-0.1-0.3C29.5,2.7,29.6,3.8,29.8,3.5z"/>
					<polygon points="31.8,5.2 31.5,4.8 31.6,5.2 					"/>
					<path d="M30.9,5.2l0.2,0.1c0-0.1,0-0.1,0-0.2C31,5.1,30.8,5.1,30.9,5.2z"/>
					<path d="M31.1,5.1c0.1,0,0.1,0,0.1-0.1C31.1,5,31.1,5,31.1,5.1z"/>
					<polygon points="31.6,5.4 31.5,5.4 31.4,5.4 					"/>
					<path d="M29.3,5.8L29.2,6c0.1,0.2,0.1,0.2,0.2,0.2C29.3,6,29.4,6,29.3,5.8z"/>
					<path d="M30.3,6.9c-0.1-0.1-0.1-0.2-0.2-0.3l0.2,0.6L30.3,6.9z"/>
					<path d="M29.9,7.2c0.1,0.2,0,0.6,0.2,0.4C30,7.5,30.1,7.3,29.9,7.2z"/>
					<polygon points="27.2,7.6 27.2,7.5 26.8,6.6 					"/>
					<path d="M26.1,10.7c0.3,0.1-0.2-0.6,0.1-0.4c-0.1-0.2-0.2-0.2-0.3-0.4C25.9,10.2,25.7,10.1,26.1,10.7z"/>
					<path d="M25.9,10c0,0,0-0.1,0-0.2C25.9,9.9,25.9,9.9,25.9,10z"/>
					<polygon points="0.2,16.7 0,16.6 0.2,16.8 					"/>
					<path d="M0.3,17.5L0,16.9l0.2,0.6C0.2,17.4,0.2,17.4,0.3,17.5z"/>
					<path d="M19,14.8l-0.1-0.1c-0.1-0.1-0.1-0.1-0.2-0.1L19,14.8z"/>
					<polygon points="17.2,15.1 17.2,15.1 16.9,14.6 					"/>
					<path d="M16.1,16.4c0.1,0,0.1-0.2,0.1-0.2C16.1,16.4,15.8,15.7,16.1,16.4z"/>
				</g>
			</g>
		</g>
	</g>
</g>
<g>
	<g>
		<g>
			<g>
				<g>
					<path d="M37.9,31.9c0,0.1,0.2-0.3,0.2-0.4C38,31.6,37.9,32,37.9,31.9z"/>
					<polygon points="36.7,32.4 36.8,32.3 36.5,32.6 					"/>
					<path d="M35.9,32.1c-0.2,0.7,0.3,0,0.4,0.3l0,0.2l0.3-0.5C36.3,32,35.9,32.3,35.9,32.1z"/>
					<path d="M36.1,30.5c-0.1,0.3-0.2,0.2,0.1,0.1C36.1,30.5,36.1,30.5,36.1,30.5C36.1,30.5,36.1,30.5,36.1,30.5z"/>
					<path d="M36.1,30.5C36.2,30.5,36.2,30.3,36.1,30.5L36.1,30.5z"/>
					<path d="M35.7,30.5l0.2-0.2c0-0.2,0-0.2,0-0.3C35.8,30,35.7,30.2,35.7,30.5z"/>
					<path d="M35.4,30.9l0.1-0.1C35.5,30.8,35.5,30.7,35.4,30.9z"/>
					<path d="M35.7,30.7l-0.2,0.1c0,0.1-0.1,0.3,0.1,0C35.4,31,35.6,30.8,35.7,30.7z"/>
					<path d="M35.7,30.8c0,0.2,0,0.3-0.2,0.5C35.8,31.3,35.9,30.8,35.7,30.8z"/>
					<path d="M35.5,32.7l0,0.2l0.2-0.2C35.6,32.8,35.6,32.5,35.5,32.7z"/>
					<path d="M35.1,29.8C35,30,35,30.2,34.9,30.4l0.2-0.1C35.1,30.2,35,30,35.1,29.8z"/>
					<path d="M34.9,30.4l-0.2,0.2C34.8,30.7,34.9,30.6,34.9,30.4z"/>
					<polygon points="35,31.6 35.4,31.2 35,31.6 					"/>
					<polygon points="34.6,29.6 34.9,29.3 34.5,29.7 					"/>
					<path d="M34.3,29.5c0.2-0.2,0.1-0.5,0.3-0.6c-0.1,0-0.3,0.2-0.4,0.4C34.2,29.2,34.3,29.3,34.3,29.5z"/>
					<path d="M33.9,29.5c0.1,0,0.1-0.1,0.2-0.3C34.1,29.3,34,29.4,33.9,29.5z"/>
					<path d="M34.5,30.4c0-0.1,0.1-0.3,0.1-0.4L34.5,30.4C34.5,30.4,34.5,30.4,34.5,30.4z"/>
					<path d="M34.5,30.4L34.5,30.4C34.4,30.4,34.4,30.3,34.5,30.4C34.4,30.3,34.4,30.4,34.5,30.4z"/>
					<path d="M34.5,30.4C34.5,30.4,34.5,30.4,34.5,30.4C34.5,30.5,34.5,30.5,34.5,30.4z"/>
					<path d="M34.8,31.1c-0.2,0.2-0.4,0.4-0.4,0.8C34.6,31.6,34.6,31.4,34.8,31.1z"/>
					<path d="M34.4,30.9l0.1,0.1c0-0.1,0.1-0.3,0.2-0.4L34.4,30.9z"/>
					<polygon points="34.3,31 34.4,30.9 34.3,30.9 					"/>
					<path d="M33.9,30c-0.1,0.1-0.2,0.1-0.3,0.1c0,0.1,0.1,0.2,0.2,0.2C33.9,30.2,34,30,33.9,30z"/>
					<path d="M34.2,30.2C34.2,30.2,34.2,30.2,34.2,30.2C34.2,30.3,34.2,30.3,34.2,30.2z"/>
					<path d="M33,29.8C33,29.9,33,29.9,33,29.8C33,29.9,33,29.9,33,29.8L33,29.8z"/>
					<path d="M33.8,30.4c0,0.1,0.1,0,0.2-0.1C33.9,30.4,33.9,30.4,33.8,30.4C33.8,30.4,33.8,30.4,33.8,30.4z"/>
					<path d="M33.6,29.6c0,0.1,0,0.2,0,0.3C33.6,29.8,33.7,29.5,33.6,29.6z"/>
					<path d="M34.2,30.1C34.2,30.1,34.2,30.1,34.2,30.1C34.2,30,34.2,30.1,34.2,30.1z"/>
					<path d="M34.2,30.1c-0.1,0-0.1,0.1-0.2,0.2c0,0,0.1,0,0.2-0.1C34.2,30.2,34.2,30.2,34.2,30.1z"/>
					<path d="M31.7,32.3c0.2-0.4,0.5-0.6,0.4-0.2c0.2-0.2,0.7-1.4,0.9-2.2c-0.1,0.2-0.1,0.3-0.4,0.5c0,0.2,0.1,0.6-0.2,0.9
						c-0.3,0.1-0.1-0.2-0.1-0.4c-0.1,0.5-0.5,0.6-0.8,1.2l0.3-0.2C31.8,32,31.7,32.1,31.7,32.3z"/>
					<path d="M33.2,30.1L33.2,30.1c0-0.1,0.1-0.3,0.1-0.6c-0.2,0.1-0.2,0.3-0.3,0.4L33.2,30.1L33.2,30.1z"/>
					<path d="M33.5,30.1c-0.2,0.4-0.4,0.5-0.5,1c0.2,0,0.3-0.3,0.4-0.4C33.1,30.7,33.6,30.5,33.5,30.1c0.1,0,0.1,0,0.2,0
						c0-0.1,0-0.1-0.1-0.2c0,0,0,0,0,0l0,0c0,0,0,0,0,0c0,0.1,0,0.1,0,0.1c0,0,0,0,0,0C33.6,30,33.5,30.1,33.5,30.1
						c0-0.1,0-0.1,0.1-0.1c0,0,0,0,0-0.1c0,0,0,0,0,0L33.3,30C33.3,30.1,33.4,30.1,33.5,30.1z"/>
					<path d="M33.9,32.7C33.9,32.6,33.9,32.6,33.9,32.7C33.9,32.6,33.9,32.6,33.9,32.7z"/>
					<path d="M33.9,32.4c0,0,0.1-0.2,0.2-0.1c0,0.1-0.1,0.2-0.1,0.3c0.1-0.1,0.3-0.2,0.2-0.5l0,0c0-0.2,0-0.7,0.1-0.8
						C34.1,31.7,34,32,33.9,32.4z"/>
					<path d="M33.7,31.4l-0.3,0.1l0,0.4l0.1-0.2C33.5,31.8,33.6,31.5,33.7,31.4z"/>
					<polygon points="33,29.6 33.2,29.2 32.9,29.8 					"/>
					<polygon points="32.7,29.6 32.9,29.2 32.7,29.4 					"/>
					<path d="M15.2,27.3l-0.1,0.1C15.1,27.3,15.2,27.3,15.2,27.3z"/>
					<path d="M15.7,27.5l0.1-0.2C15.7,27.4,15.6,27.5,15.7,27.5z"/>
					<path d="M25.9,26.6c0.1-0.4,0.2-0.9,0-0.5l-0.1,0.4C25.9,26.5,25.9,26.5,25.9,26.6z"/>
					<path d="M20.3,27c0,0,0,0.1,0,0.1c0.1-0.1,0.2-0.2,0.2-0.4C20.4,26.8,20.3,26.9,20.3,27z"/>
					<path d="M19.5,28.6l0-0.3C19.5,28.4,19.5,28.5,19.5,28.6z"/>
					<path d="M12.6,26.6L12.3,27C12.4,27,12.5,26.8,12.6,26.6z"/>
					<path d="M29.8,28.5c0-0.2,0-0.3-0.1-0.3C29.8,28.4,29.7,28.8,29.8,28.5z"/>
					<path d="M17.2,23.1c-0.1,0.1-0.1,0.1-0.2,0.2C17.1,23.3,17.2,23.2,17.2,23.1z"/>
					<path d="M29.5,28c0,0,0,0.1,0,0.1c0.1,0,0.2-0.1,0.2,0C29.8,27.9,29.7,27.8,29.5,28z"/>
					<path d="M3.8,22.4C3.8,22.4,3.8,22.4,3.8,22.4C3.7,22.4,3.7,22.4,3.8,22.4z"/>
					<path d="M2.9,17.2c0,0,0.1,0,0.1,0C3,17.2,3,17.2,2.9,17.2z"/>
					<path d="M31.7,28.9C31.8,28.9,31.7,28.9,31.7,28.9L31.7,28.9z"/>
					<path d="M31.3,30.6c0,0-0.1,0.1-0.1,0.2C31.2,30.7,31.3,30.6,31.3,30.6z"/>
					<path d="M27.9,30.3C27.9,30.3,27.9,30.3,27.9,30.3C27.8,30.3,27.9,30.3,27.9,30.3z"/>
					<path d="M31.7,29.1c0-0.1,0-0.1,0-0.2C31.7,29,31.7,29,31.7,29.1z"/>
					<path d="M31.8,28.9C31.8,28.9,31.8,29,31.8,28.9C31.9,28.9,31.9,28.9,31.8,28.9z"/>
					<path d="M31.6,28.9C31.6,28.9,31.7,28.9,31.6,28.9C31.7,28.9,31.7,28.9,31.6,28.9C31.7,28.9,31.7,28.9,31.6,28.9z"/>
					<path d="M9,23.4C9,23.4,9,23.4,9,23.4C8.9,23.5,8.9,23.5,9,23.4z"/>
					<path d="M22.6,30.1C22.6,30.1,22.6,30.1,22.6,30.1C22.6,30.1,22.6,30.1,22.6,30.1L22.6,30.1z"/>
					<path d="M22.3,30.3c0.3-0.5,0.3-0.4,0.4-0.2l0.4-1.2L22.3,30.3z"/>
					<path d="M14.1,26.9l0,0.4c-0.4,0.5-0.5,0.3-0.6,0.8c0.6-1.2,0.6,0.1,1.2-1.1l0,0.3c0,0-0.1,0-0.1,0c-0.1,0.7,0.5-0.8,0.7-0.6
						c0,0.1,0,0.3-0.1,0.5l0.3-0.2c0,0-0.1,0.3-0.1,0.2l0.3,0l0,0c0.1-0.2,0.4-0.4,0.5-0.5c0,0.2-0.1,0.1-0.1,0.3l0.3-0.2
						c-0.1,0.4-0.3,0.6-0.4,0.5c-0.4,1.3,0.3-0.3,0.3,0.6L16,28c-0.2,0.7,0,0.5,0,1.1c0.1-0.2,0.1-1.3,0.5-1.5c0,0.1,0.1,0.2,0.3,0
						C16.5,28,16.6,28,16.7,28l-0.3,0.6c0.2-0.1,0.3-0.4,0.5-0.7c0.1,0.1-0.1,0.6-0.2,1c0.2,0.2,0.2-0.8,0.5-0.8
						c0.1,0.3,0.3,0.1,0.7-0.1c0,0.3-0.2,0.3-0.2,0.5l0.3-0.4c0,0,0,0.2-0.1,0.2c0.2-0.1,0.3-0.6,0.5-0.7c0.3-0.6-0.1,1.1,0.4,0.4
						c0,0.2-0.2,0.3-0.3,0.6c0.5-0.4,0.4-0.3,0.9-0.8l0,0.5c0.1-0.5,0.5-0.9,0.8-1.3c0-0.2,0.1-0.4,0.1-0.5l0.4-0.2
						c0,0.1-0.1,0.3-0.3,0.5c0,0,0.1-0.1,0.1-0.1c0,0.3-0.2,0.6-0.4,0.9c0-0.1,0-0.3,0.1-0.4c-0.2,0.3-0.4,0.7-0.6,1.1
						c0-0.1,0.1-0.1,0.1-0.1c-0.1,0.1-0.1,0.2-0.1,0.2c0,0.1,0.1-0.1,0.2-0.2l-0.2,0.7l0.1-0.3l0.1,0.5c0.5-0.6,1.1-1.4,1.6-1.6
						c-0.3,0.4-0.4,0.8-0.6,1.3c0.2-0.6-0.4,0.1-0.5-0.1c0.1,0.1-0.1,0.4-0.1,0.5l0.6-0.4c-0.2,0.5-0.1,0.4-0.1,0.6
						c0.3-0.9,0.5-0.5,0.8-0.7c-0.1,0.3-0.3,0.6-0.4,0.5c-0.1,0.8,0.7-1,0.6-0.3c0,0,0-0.1-0.1,0.1c0.2-0.2,0.3,0.1,0.2,0.3l0,0
						c0.2,0.2,0.8,0.4,1.2-0.4c0,0.1-0.4,0.9-0.5,1.1l1.6-2.4c-0.3,0.7-0.9,2.3-1.3,2.6c0,0.1,0,0.3,0.3,0.1c0-0.1,0.3-1,0.4-1.1
						c-0.2,0.8-0.1,0.4-0.1,1.2c0-0.2,0.5-1.2,0.6-1.1c-0.1,0.2-0.4,1-0.5,1.1l0.7-0.9c-0.1,0.2-0.4,0.9-0.5,1.2
						c0.1-0.2,0.2,0.1,0.3,0l0-0.3c0.2,0.3,0.9-1.3,1.2-1.2c-0.1,0.2-0.7,1.3-0.6,1.5c0.3-0.5,1.4-2.4,1.8-2.7l-0.1,0.3l0.3-0.3
						c-0.5,0.7-1.5,2.3-2,2.8c0,0.3-0.1,0.4,0,0.4c-0.1,0.3-0.3,0.4-0.3,0.4l0.3,0.3c0.3-0.6,0.5-0.5,0.8-1l-0.7,0.5
						c0.3-0.6,1-1.6,1.2-1.4c0,0.3-0.5,1.1-0.6,1.3c0.1-0.2,0.4-0.3,0.4-0.1l-0.3,0.3c0,0.3,0.6-0.7,0.5-0.1c0,0.1-0.2,0.9,0,0.5
						c0.2-0.7,1.1-2.9,1.4-3.4c0,0.1,0,0.8-0.1,1.2c-0.1,0.6-0.7,1.2-0.8,1.8c0.1-0.2,0.2-0.4,0.3-0.4c0,0.2-0.3,0.5-0.1,0.5
						c0.3-0.6,0.3,0.2,0.3-0.5c0.2-0.1,0.1,0.2,0.3,0.2c0.1-0.4,0.7-1.3,1-1.4c-0.1,0.2-0.1,0.4-0.2,0.5c0.2,0.2,0.3,0.5,0.5,0.6
						c0,0.2,0,0.4-0.2,0.6c0.1-0.1,0.2-0.3,0.3-0.3c-0.1,0.6-0.2,0-0.4,0.7c0.2-0.4,0.4-0.4,0.6-0.6c0.2-0.6-0.2-0.2-0.4,0
						c0.3-0.8,0.9-1.5,1.3-1.7c0.3-0.1-0.1,0.5,0,0.4c0.3,0.3,0.9-1.2,1-0.5c-0.1,0.6-0.4,1-0.5,1.4c-0.3,0.1-0.1-0.4-0.3-0.5l0,0.3
						c-0.1,0.1-0.3,0.2-0.3,0c-0.1,0.5,0.6,0.4,0.8,0.9c0.1-0.1,0.3-0.3,0.3-0.5l-0.1,0c0.1-0.4,0.4-0.5,0.4-0.7
						c0.3-0.2,0.6-0.6,0.7-0.3l-0.2,0.6c0.1-0.2,0-0.4-0.1-0.2c0.2-0.2,0,0.9,0.4,0.2l0-0.4c0.3-0.2,0.7-0.8,0.8-0.5
						c0.2-0.6-0.1,0,0.1-0.7C32.3,30,32.2,29,32,29.9c0.2-0.8-0.1-0.4,0.1-1.1c-0.1,0.2-0.1,0.4-0.2,0.2c0,0.1-0.1,0.1-0.1,0.2
						c0,0,0,0,0,0c0,0,0,0,0,0c0,0,0,0,0,0c0,0.1,0,0.2-0.1,0.3c-0.3,0.4-0.5,0.3-0.6,0.5c0-0.1,0.1-0.2,0.2-0.4l-0.3,0.3
						c0.2-0.4,0.1-0.8,0.4-0.9l-0.2-0.1c0-0.3-0.1-0.4-0.3-0.3c0-0.1-0.4,0.4-0.2,0.1l-0.4,0.1l0-0.1c-0.2-0.2-0.8,0.4-0.8-0.4
						c-0.1,0.1-0.3,0.2-0.4,0l0.1-0.4c-0.2,0.1-0.2-0.5-0.4-0.2c0.3-1-0.5-0.5-0.6-0.7l-0.2,0.5c-0.1-0.1-0.3,0-0.6,0.1l-0.2,0.4
						c-0.3,0.3-0.3-0.5-0.5-0.5c0.1-0.2,0.1-0.1,0.1,0c0.1-1.1-0.9,0.4-0.9-0.4c-0.1,0.1-0.2,0.1-0.2-0.1c0,0,0,0,0,0c0,0,0,0,0,0
						c0-0.1,0-0.2,0-0.3c0,0.1,0,0.2,0,0.3c-0.1,0-0.1,0-0.3,0.1l0.2-0.5c0,0,0,0,0,0c0-0.2-0.1,0.2-0.3,0.5
						c-0.1,0.1-0.1,0.1-0.2,0.2c0.3-0.7-0.3,0.2,0-0.6c-0.2,0.3-0.5,0.1-0.9,0.9c0-0.1,0-0.2,0.1-0.1c0-0.1-0.1-0.2-0.3-0.1l0.2-0.6
						l-0.5,0.7c0-0.4,0.1-0.6,0.4-1c-0.5,0.6-0.3,0.2-0.8,0.7l0.2-0.4c-0.1,0-0.4,0.4-0.3,0.1c0.1-0.8-0.8-0.5-1-1.3
						c-0.4,1.1,0-0.6-0.4,0.2c0.1-0.3,0.1-0.4,0.3-0.6c-0.3,0.1-0.2-0.6-0.6,0.1c0.1-0.3,0.2-0.3,0.3-0.5c0,0-0.2,0.2-0.1,0
						c0-0.2,0.1-0.2,0.2-0.3c-0.3-0.1-0.6,0.7-1,1.4c0-0.4,0-0.4-0.3,0.1c0.1-0.3,0.1-0.5,0.3-0.6c-0.1-0.1-0.4-0.6-0.6,0
						c0-0.2-0.1-0.1-0.1,0c-0.2-0.1-0.2-0.2-0.4-0.2l0,0.1c-0.4,0.7-0.2,0.1-0.4,0.1l0-0.1c-0.1-0.7-0.3,0.2-0.3-0.5l-0.2,0.4
						c-0.4,0.9-0.1-0.7-0.4-0.4l0,0.3c-0.2,0.3,0.3-1.4,0.2-1.6c0-0.1,0.1-0.1,0.2-0.2c0-0.7-0.3,0.6-0.6,0.6
						c0.1-0.3,0.4-0.8,0.3-0.9c0-0.3-0.8,0.8-0.8,0.2c-0.1,0.3-0.1,0.5-0.3,0.7c-0.2,0,0-1.1-0.5-0.4c0-0.1,0-0.1,0.1-0.2
						c-0.2,0.1-0.5,0.2-0.8,0.5c0.6-1.6-1,0.4-0.4-1l-0.4-0.1l0.1-0.1c-0.2-0.2-0.4,0.1-0.6,0.4c0-0.1,0.1-0.2,0.1-0.3
						c-0.2-0.4-0.3-0.4-0.8,0.2l0.2-0.5c-0.2,0.2-0.2-0.9-0.7-0.5c0-0.1,0.1-0.1,0.1-0.2c-0.6,0.4-0.3-1.6-1.2,0l-0.4,0.3
						c0.2,0.3-0.4,0.7-0.4,1c-0.2,0-0.1-0.6,0.1-0.7l0,0.1c0.4-0.8-0.2-0.5,0-1.1c-0.6-0.2-1-0.9-1.5-1.2L10.3,21l-0.2-0.1
						c0-0.2,0.2-0.6,0.3-0.5c0.1-0.4-0.4,0.2-0.4,0.4c-0.2-0.4,0.4-0.7,0.4-0.8l-0.1,0l0,0.1c-0.2,0.2-0.3,0.5-0.5,0.4
						c0-0.2,0.1-0.4,0.1-0.5c0,0,0-0.1-0.1,0l-0.2-0.2l-0.1,0.6c-0.2,0.2-0.2-0.1-0.4,0.5c0.2-1-0.8-0.7-0.7-1.1
						c-0.3,0.3-0.5,0.2-0.6,0.1c0,0.1-0.2,0.7-0.4,0.6c0.6-1.2-0.1-0.7,0.2-1.6c-0.1,0.6-0.5-0.1-0.7,0.9C6.7,19.6,6.9,19.3,7,19
						c-0.5,0.3-0.6-0.6-1-0.6c-0.1,0.2-0.1,0.4-0.3,0.6l0.1-0.9c-0.1,0-0.5,0.9-0.4,0.3c0,0.1-0.1,0.4-0.2,0.4c-0.4-1.1-1.9,0-2-1.9
						c0,0.4-0.1,0.4-0.2,0.3c0,0.1-0.2,0.4-0.3,0.6l-0.1-0.8C2.4,17.7,2.3,17,2,17.6l0.1-0.1c-0.4,0.6-0.5,1.6-0.9,2.5
						c0.5-0.7-0.1,1.3,0.6,0.3c0,0.2-0.2,0.3-0.2,0.5c0.2-0.3,0.3-0.4,0.4-0.2l-0.1,0.1c0.4,0.1,0.5,0.5,0.8,1l0.2-0.4
						c0.1,0.1,0,0.2,0,0.4c0.4-0.6-0.3-0.2,0.2-0.8c-0.3,0.9,0.7,0.3,0.3,1.4c0.1,0.1,0.2-0.5,0.3-0.5L3.8,22L4,21.7
						c0.1,0.1,0,0.5-0.1,0.7c0,0-0.1,0-0.1,0c0,0.4,0.4,0,0.4,0.2l-0.1-0.2c0.5-0.1,0.9,0.5,1.5,0.1l0.1-0.2
						c0.5-0.2,0.1,0.3,0.6,0.3l0,0c0.2-0.2,0.3-0.2,0.4-0.2c-0.2,0.2,0,0.5-0.3,0.8c0.5-0.3,0.3-0.2,0.9-0.9L7,22.6
						c0.2-0.3,0.3-0.4,0.5-0.5c-0.3,0.2-0.1,0.6-0.4,0.9c0,0.9,0.8-0.5,0.5,0.6c0.6-0.9-0.1-0.7,0.1-0.8c0.1-0.3,0.4-0.6,0.5-0.5
						c0.1,0.1-0.3,1.3,0,1.4c0,0-0.1,0.1-0.1,0c0,0.3,0.3-0.2,0.3,0.2c0.3-0.5,0.2,0.1,0.5-0.6l-0.3,0.1c0.2-0.1,0.7-0.9,0.8-0.4
						c-0.1,0.1-0.2,0.3-0.3,0.4c0,0.2,0.2-0.1,0.2,0.2c-0.3,0.7-0.4,0-0.8,0.5c-0.1,0.3,0.5-0.4,0.1,0.4c0.5-1,0.2,0.2,0.7-0.4
						l-0.2,0.4c0.1-0.1,0.2-0.2,0.3-0.2L9,24.8c0.4-0.4,0.1,0.5,0.4,0.4C9,25,9.5,24.6,9.5,24.2c0.6-0.4-0.3,1.2,0.2,1.2
						c-0.1,0-0.1-0.4,0.1-0.5c0,0.1,0.1,0.3,0,0.6c0.3,0,0.2-0.5,0.4-0.7c-0.1,0.6,0.2-0.2,0.4-0.3L10.5,25c0.2,0.4,0.5-0.9,0.6-0.4
						l-0.4,0.6l0.2-0.1l-0.3,0.5c0.3-0.3,0.3-0.2,0.4,0c0.1-0.3,0.4-0.8,0.5-0.7c0,0.3-0.2,0.4,0,0.4c-0.2,0.3-0.4,0.6-0.3,0.1
						c-0.1,0.1-0.2,0.3-0.2,0.4c0,0.3,0.2,0.2,0.3,0.2c0,0,0-0.1,0-0.1l0.6-0.5c0,0.2-0.1,0.3-0.2,0.4c0.1,0,0.2-0.2,0.3-0.2
						c-0.2,0.3-0.3,0.7-0.5,0.8l0.5-0.3c0,0.2,0,0.5-0.1,0.6c0.1,0.3,0.7-0.5,0.8-0.2c0-0.1,0.1-0.1,0.2-0.2
						c0.2,0.2,0.1,0.7,0.6,0.3l-0.2,0.7c0.2-0.1,0.2-0.9,0.6-1c0.3-0.1-0.2,0.6-0.2,0.8c0.2-0.3,0.7-0.9,0.7-0.3
						C14.2,27,14.2,26.9,14.1,26.9z M16.4,27.6c-0.1,0.1-0.3,0.3-0.2,0C16.5,27.2,16.4,27.4,16.4,27.6z M20.2,28
						c-0.1,0.1-0.1,0-0.1-0.2C20.2,27.8,20.2,27.8,20.2,28z M30.9,29C30.9,29,30.9,29,30.9,29C30.9,28.8,30.9,28.9,30.9,29z
						 M31,29.3c0-0.1,0.1-0.1,0.1-0.2c-0.1,0.1-0.1,0.1-0.1,0C30.9,29.2,30.9,29.3,31,29.3z M9.7,20.2l0,0.1
						C9.5,20.4,9.6,20.3,9.7,20.2z"/>
					<path d="M19.6,28.4c0-0.1,0.1-0.2,0.1-0.2C19.6,28.2,19.6,28.3,19.6,28.4z"/>
					<path d="M12.6,26.5C12.6,26.5,12.6,26.5,12.6,26.5C12.6,26.6,12.6,26.6,12.6,26.5L12.6,26.5z"/>
					<path d="M26.3,31.7c0-0.1,0-0.2,0-0.3C26.3,31.5,26.3,31.6,26.3,31.7z"/>
					<path d="M32.4,29L32.2,29c0.1,0,0.1,0.1,0.1,0.2C32.3,29.1,32.4,28.9,32.4,29z"/>
					<path d="M32.3,32.2C32.3,32.1,32.3,32.2,32.3,32.2l0.2-0.2C32.4,31.9,32.3,32.1,32.3,32.2z"/>
					<path d="M31.9,30.5c-0.2,0.4,0,0.3,0.1,0.3c0,0,0,0,0,0C32.2,30.2,32,30.4,31.9,30.5z"/>
					<path d="M32,30.7C32,30.7,32.1,30.7,32,30.7C32.2,30.6,32.1,30.7,32,30.7z"/>
					<path d="M31.4,29.1c0,0.1,0.2-0.5,0.2-0.3C31.8,28.4,31,29.3,31.4,29.1z"/>
					<polygon points="31.4,31.7 31.6,31.3 31.4,31.6 					"/>
					<path d="M30.9,31.1l0.1,0.2c0-0.1,0.1-0.1,0.1-0.1C31,31.1,30.9,31,30.9,31.1z"/>
					<path d="M31,31.1c0,0,0.1,0,0.1,0C31.2,31.1,31.1,31.1,31,31.1z"/>
					<polygon points="31.2,31.8 31.2,31.7 31.1,31.6 					"/>
					<path d="M29.4,30.3l-0.2,0.1c-0.1,0.2-0.1,0.3,0,0.2C29.2,30.5,29.3,30.5,29.4,30.3z"/>
					<path d="M29.3,31.8c0-0.1,0-0.2,0.1-0.4L29.1,32L29.3,31.8z"/>
					<path d="M28.8,31.7c-0.1,0.2-0.4,0.4-0.2,0.4C28.7,32,28.9,31.9,28.8,31.7z"/>
					<polygon points="26.8,30 26.8,30 27.2,29.1 					"/>
					<path d="M23.7,31.3c0.1,0.3,0.3-0.6,0.3-0.2c0.1-0.2,0-0.3,0.1-0.5C23.9,30.9,23.9,30.7,23.7,31.3z"/>
					<path d="M24.2,30.7c0,0,0.1-0.1,0.1-0.1C24.2,30.6,24.2,30.6,24.2,30.7z"/>
					<polygon points="2.7,16.6 2.7,16.3 2.6,16.7 					"/>
					<path d="M2.2,17.1l0.2-0.6L2.2,17.1C2.1,17,2.2,17,2.2,17.1z"/>
					<path d="M16.2,28.9l0.1-0.1c0-0.2,0-0.2,0-0.2L16.2,28.9z"/>
					<polygon points="14.8,27.8 14.8,27.8 15,27.3 					"/>
					<path d="M13.2,27.9c0,0,0.2,0,0.2,0C13.2,27.9,13.4,27.2,13.2,27.9z"/>
				</g>
			</g>
		</g>
	</g>
</g>
<g>
	<g>
		<g>
			<g>
				<g>
					<path d="M80.6,15.1c0.1,0,0.1-0.4,0.1-0.5C80.5,14.7,80.6,15.2,80.6,15.1z"/>
					<polygon points="78.8,16.1 78.9,15.9 78.6,16.3 					"/>
					<path d="M77.2,16c0.2,0.7,0.6-0.1,0.9,0.1l0,0.2l0.1-0.6C77.9,15.9,77.5,16.2,77.2,16z"/>
					<path d="M76.3,14.5c0.1,0.3-0.2,0.2,0.2,0.1c0,0,0,0,0-0.1C76.5,14.5,76.4,14.5,76.3,14.5z"/>
					<path d="M76.5,14.5C76.7,14.5,76.4,14.3,76.5,14.5L76.5,14.5z"/>
					<path d="M75.7,14.7l0.2-0.2c0-0.2-0.3-0.2-0.2-0.3C75.5,14.2,75.6,14.4,75.7,14.7z"/>
					<path d="M75.5,15.2l0.1-0.1C75.6,15,75.6,15,75.5,15.2z"/>
					<path d="M75.9,14.9l-0.3,0.2c0,0.1,0,0.3,0.1-0.1C75.7,15.2,75.7,15,75.9,14.9z"/>
					<path d="M76,15c0.1,0.2,0.3,0.3,0.1,0.5C76.5,15.4,76.4,14.9,76,15z"/>
					<path d="M77.1,16.8l0.2,0.2l0.1-0.2C77.4,16.9,77.1,16.6,77.1,16.8z"/>
					<path d="M74.3,14.3c0,0.2,0.1,0.4,0.1,0.6l0.2-0.2C74.5,14.6,74.3,14.5,74.3,14.3z"/>
					<path d="M74.4,14.9l-0.3,0.3C74.3,15.2,74.4,15.1,74.4,14.9z"/>
					<polygon points="75.4,16 75.9,15.4 75.4,16 					"/>
					<polygon points="73.3,14.3 73.5,13.9 73.2,14.5 					"/>
					<path d="M72.7,14.4c0.1-0.3-0.1-0.5,0-0.7c-0.2,0.1-0.3,0.3-0.5,0.5C72.3,14.1,72.5,14.1,72.7,14.4z"/>
					<path d="M72,14.5c0.1-0.1,0.1-0.2,0.2-0.3C72.1,14.3,72,14.4,72,14.5z"/>
					<path d="M73.7,15.1c0-0.1-0.1-0.3-0.2-0.4L73.7,15.1C73.6,15.1,73.7,15.1,73.7,15.1z"/>
					<path d="M73.6,15.1L73.6,15.1c-0.1,0-0.2,0-0.2,0C73.4,15.1,73.5,15.1,73.6,15.1z"/>
					<path d="M73.7,15.1C73.7,15.1,73.7,15.1,73.7,15.1C73.7,15.1,73.7,15.2,73.7,15.1z"/>
					<path d="M74.8,15.6c-0.1,0.2-0.5,0.5-0.2,0.9C74.7,16.2,74.6,16,74.8,15.6z"/>
					<path d="M73.8,15.6l0.3,0.1c0-0.1-0.1-0.3,0-0.4L73.8,15.6z"/>
					<polygon points="73.7,15.8 73.8,15.6 73.7,15.6 					"/>
					<path d="M72.4,14.9c-0.1,0.2-0.2,0.2-0.4,0.2c0.2,0.1,0.3,0.1,0.5,0.1C72.5,15.2,72.6,14.9,72.4,14.9z"/>
					<path d="M73,15.1C73,15.1,73,15.1,73,15.1C73,15.1,73,15.1,73,15.1z"/>
					<path d="M70.6,15.2C70.7,15.2,70.7,15.2,70.6,15.2C70.7,15.2,70.7,15.2,70.6,15.2L70.6,15.2z"/>
					<path d="M72.5,15.4c0.1,0.1,0.2,0,0.2-0.2C72.7,15.3,72.6,15.3,72.5,15.4C72.5,15.4,72.5,15.4,72.5,15.4z"/>
					<path d="M71.6,14.7c0.1,0.1,0.1,0.2,0.2,0.2C71.7,14.8,71.6,14.6,71.6,14.7z"/>
					<path d="M72.9,15C72.9,15,72.9,14.9,72.9,15C72.9,14.9,72.9,14.9,72.9,15z"/>
					<path d="M72.9,15c-0.1,0.1-0.1,0.2-0.2,0.3c0.1,0,0.1-0.1,0.2-0.1C73,15,72.9,15,72.9,15z"/>
					<path d="M70.2,17.9c0-0.4,0.3-0.8,0.6-0.3c0.3-0.3,0.1-1.6-0.1-2.3c0,0.2,0,0.3-0.3,0.6c0.1,0.2,0.6,0.5,0.4,0.9
						c-0.3,0.2-0.3-0.1-0.5-0.3c0.1,0.5-0.4,0.7-0.4,1.4l0.3-0.3C70.2,17.6,70.1,17.8,70.2,17.9z"/>
					<path d="M71.2,15.3l0.1,0c-0.1-0.1-0.2-0.2-0.4-0.5c-0.2,0.2-0.2,0.3-0.2,0.5L71.2,15.3L71.2,15.3z"/>
					<path d="M71.8,15.2c-0.1,0.4-0.3,0.6-0.2,1.1c0.3,0,0.2-0.4,0.4-0.5C71.5,15.9,72.1,15.5,71.8,15.2c0.1,0,0.2,0,0.3-0.1
						c-0.1-0.1-0.2-0.1-0.3-0.2c0,0,0,0,0,0l0,0c0,0,0,0,0,0c0,0.1,0,0.1,0,0.1c0,0,0,0,0,0C71.8,15.1,71.8,15.2,71.8,15.2
						c-0.1-0.1,0-0.1,0-0.2c0,0,0,0,0-0.1c0,0,0,0,0,0l-0.5,0.2C71.4,15.3,71.5,15.3,71.8,15.2z"/>
					<path d="M74.4,17.4c0,0,0-0.1,0-0.1C74.3,17.3,74.3,17.4,74.4,17.4z"/>
					<path d="M74.1,17.1c0-0.1,0.1-0.2,0.2-0.2c0.1,0.1,0,0.2,0,0.3c0.1-0.1,0.3-0.3,0-0.5l0,0.1c-0.2-0.1-0.5-0.7-0.4-0.7
						C73.9,16.5,74,16.8,74.1,17.1z"/>
					<path d="M72.9,16.3l-0.4,0.2l0.2,0.4l0-0.2C73,16.7,72.9,16.5,72.9,16.3z"/>
					<polygon points="70.6,15 70.7,14.5 70.4,15.1 					"/>
					<polygon points="70,15 70.1,14.6 69.9,14.8 					"/>
					<path d="M38.6,19.9L38.4,20C38.5,20,38.5,20,38.6,19.9z"/>
					<path d="M39.5,19.9l0-0.2C39.5,19.9,39.4,19.9,39.5,19.9z"/>
					<path d="M56.3,15c-0.2-0.4-0.4-0.9-0.4-0.5L56,15C56.2,14.9,56.3,15,56.3,15z"/>
					<path d="M47,17.6c0,0,0,0.1,0.1,0.1c0-0.1,0.1-0.3,0.1-0.4C47.1,17.4,47,17.5,47,17.6z"/>
					<path d="M46.8,19.4l-0.2-0.3C46.6,19.3,46.7,19.3,46.8,19.4z"/>
					<path d="M33.6,20.4l-0.1,0.4C33.7,20.8,33.6,20.6,33.6,20.4z"/>
					<path d="M64.3,15.2c-0.2-0.2-0.3-0.2-0.4-0.3C64.1,15.2,64.3,15.5,64.3,15.2z"/>
					<path d="M38.9,15.3c-0.1,0.1-0.1,0.2-0.1,0.3C38.9,15.5,38.9,15.4,38.9,15.3z"/>
					<path d="M63.5,14.9c0,0,0.1,0.1,0.1,0.1c0.1-0.1,0.2-0.1,0.4-0.1C63.8,14.7,63.6,14.6,63.5,14.9z"/>
					<path d="M15.5,20C15.5,20,15.5,20,15.5,20C15.4,20,15.5,20,15.5,20z"/>
					<path d="M10.2,15.6c0.1,0,0.1,0,0.2,0C10.4,15.6,10.3,15.6,10.2,15.6z"/>
					<path d="M67.8,14.8C67.9,14.8,67.8,14.8,67.8,14.8L67.8,14.8z"/>
					<path d="M68.4,16.5c0,0,0,0.1,0,0.2C68.3,16.6,68.3,16.6,68.4,16.5z"/>
					<path d="M62.3,17.6C62.3,17.6,62.3,17.6,62.3,17.6C62.3,17.7,62.3,17.7,62.3,17.6z"/>
					<path d="M68,15c0-0.1-0.1-0.1-0.2-0.1C67.8,14.9,67.9,15,68,15z"/>
					<path d="M67.9,14.8c0,0,0.1,0,0.1,0C68.1,14.8,68.1,14.7,67.9,14.8z"/>
					<path d="M67.6,14.8c0.1,0,0.1,0,0.2,0c0,0,0-0.1,0-0.1C67.8,14.8,67.7,14.8,67.6,14.8z"/>
					<path d="M25.2,18.9C25.2,18.8,25.2,18.8,25.2,18.9C25,19,25.1,19,25.2,18.9z"/>
					<path d="M53.3,19.6C53.3,19.6,53.3,19.5,53.3,19.6C53.3,19.5,53.3,19.5,53.3,19.6L53.3,19.6z"/>
					<path d="M52.8,19.9c0.2-0.5,0.3-0.5,0.4-0.4l-0.1-1.3L52.8,19.9z"/>
					<path d="M36.4,20l0.3,0.4c-0.4,0.6-0.6,0.4-0.3,1c0-1.4,1.2-0.1,1.2-1.5l0.2,0.3c-0.1,0-0.1,0.1-0.1,0.1c0.4,0.7,0.3-1,0.8-0.8
						c0.2,0.1,0.3,0.3,0.2,0.5l0.4-0.3c0.1,0,0.1,0.3,0,0.2l0.6-0.1l0,0c0.1-0.2,0.3-0.5,0.4-0.7c0.1,0.2-0.1,0.1,0,0.3l0.3-0.3
						c0.1,0.4-0.1,0.7-0.4,0.6c0.3,1.4,0.3-0.3,0.9,0.5l-0.3,0.2c0.2,0.8,0.4,0.5,0.8,1c-0.1-0.3-0.7-1.2-0.3-1.5
						c0.1,0.1,0.2,0.2,0.4-0.1c0,0.5,0.2,0.4,0.4,0.3l0,0.6c0.2-0.2,0.2-0.5,0.4-0.8c0.3,0.1,0.3,0.6,0.4,1c0.4,0.1-0.3-0.8,0.2-0.9
						c0.4,0.2,0.6,0,1.1-0.4c0.3,0.2,0,0.4,0,0.6l0.2-0.5c0.1,0,0,0.2,0,0.2c0.2-0.2,0-0.6,0.3-0.8c0.1-0.7,0.6,1,1,0.2
						c0.1,0.2,0,0.4,0,0.6c0.5-0.5,0.4-0.4,0.9-1.1l0.4,0.4c-0.3-0.5,0.1-1,0.4-1.5c-0.1-0.2-0.2-0.4-0.2-0.5l0.5-0.3
						c0.1,0.1,0,0.3-0.1,0.6c0-0.1,0.1-0.1,0.1-0.2c0.2,0.2,0.1,0.6,0,1c-0.1-0.1-0.1-0.3-0.2-0.4c-0.1,0.4-0.2,0.8-0.2,1.2
						c0-0.1,0.1-0.1,0.2-0.2c0,0.1-0.1,0.2,0,0.3c0,0.1,0.1-0.1,0.1-0.2l0.1,0.7l0-0.3l0.6,0.4c0.4-0.7,0.8-1.8,1.5-2.1
						c-0.2,0.5,0,0.9,0,1.5c-0.2-0.7-0.5,0.3-0.9,0.1c0.2,0.1,0.1,0.4,0.1,0.5l0.7-0.6c0,0.5,0.1,0.4,0.3,0.6c-0.1-1,0.5-0.7,0.8-1
						c0,0.3,0,0.7-0.4,0.6c0.4,0.8,0.5-1.2,0.8-0.5c-0.1,0-0.1,0-0.2,0.1c0.2-0.3,0.6-0.1,0.5,0.2l-0.1,0c0.5,0.1,1.6,0,1.7-0.8
						c0,0.1-0.1,1-0.1,1.2l0.9-2.9c-0.1,0.7,0.2,2.5-0.2,2.9c0.1,0.1,0.3,0.2,0.5,0c-0.1-0.1-0.2-1.1-0.1-1.1
						c0.3,0.8,0.2,0.4,0.6,1.1c-0.1-0.2,0-1.3,0.2-1.3c0,0.2,0,1.1-0.1,1.3l0.5-1.1c-0.1,0.2,0,1,0.1,1.3c-0.1-0.2,0.4,0,0.6-0.1
						l-0.2-0.3c0.6,0.2,0.6-1.6,1.1-1.5c-0.1,0.2-0.2,1.4,0.1,1.6c0.1-0.6,0.6-2.8,1.1-3.2l0.1,0.3l0.4-0.4
						c-0.2,0.9-0.9,2.7-1.3,3.4c0.2,0.3,0.1,0.4,0.4,0.4c0.1,0.3-0.2,0.5-0.3,0.5l0.7,0.2c0-0.7,0.6-0.7,0.5-1.2L57.6,20
						c0-0.7,0.5-1.9,1-1.8c0.1,0.3-0.1,1.2-0.1,1.4c0.1-0.2,0.5-0.4,0.5-0.3l-0.2,0.4c0.3,0.3,0.5-0.9,0.8-0.2
						c0.1,0,0.4,0.9,0.4,0.5c-0.2-0.8-0.2-3.1-0.1-3.7c0,0.1,0.6,0.7,0.8,1.1c0.2,0.6-0.3,1.4-0.1,2c0-0.2,0.1-0.4,0.2-0.5
						c0.1,0.2-0.1,0.6,0.2,0.5c0-0.7,0.6,0.1,0.1-0.6c0.3-0.2,0.3,0.1,0.6,0.1c-0.1-0.4,0.3-1.5,0.6-1.7c0,0.2,0,0.4,0.1,0.5
						c0.6,0.1,0.9,0.4,1.4,0.4c0,0.2,0.3,0.4,0.2,0.7c0.1-0.1,0.1-0.4,0.3-0.4c0.3,0.6-0.4,0.1-0.1,0.8c0-0.4,0.4-0.5,0.6-0.8
						c-0.1-0.6-0.5-0.1-0.8,0.1c0-0.8,0.4-1.7,0.9-2.1c0.4-0.2,0.2,0.5,0.3,0.4c0.8,0.1,0.7-1.5,1.4-0.9c0.3,0.5,0,1.1,0.1,1.5
						C66.2,17.5,66,17,65.8,17l0.3,0.3c-0.1,0.2-0.3,0.3-0.5,0.2c0.2,0.5,1.4,0.1,2,0.5c0.1-0.2,0.3-0.4,0.2-0.6l-0.2,0.1
						c-0.2-0.4,0.4-0.6,0.1-0.8c0.3-0.3,0.6-0.8,0.9-0.5l0.1,0.6c0-0.2-0.2-0.4-0.3-0.2c0.2-0.3,0.6,0.8,0.7,0l-0.3-0.4
						c0.3-0.3,0.6-1,0.9-0.8c-0.2-0.6-0.1,0.1-0.3-0.6c0.2,0.9-0.8,0-0.5,0.9c-0.2-0.8-0.4-0.3-0.7-1c0,0.2,0.1,0.4-0.2,0.3
						c0,0.1,0,0.1-0.1,0.2c0,0,0,0,0,0c0,0,0,0,0,0c0,0,0,0,0,0c0.1,0.1,0.1,0.2,0.1,0.3c-0.1,0.5-0.6,0.4-0.7,0.7
						c-0.2-0.1,0.1-0.2,0-0.4L67.2,16c0-0.4-0.4-0.7,0-1l-0.3,0c-0.2-0.3-0.5-0.4-0.7-0.2c-0.2-0.1-0.4,0.5-0.3,0.1l-0.5,0.3l0-0.1
						c-0.5-0.1-1.1,0.7-1.7-0.1c-0.2,0.1-0.4,0.3-0.7,0.1l-0.1-0.4c-0.2,0.1-0.7-0.4-0.8,0c-0.3-1-1.1-0.2-1.5-0.4l0,0.5
						c-0.3,0-0.6,0.1-0.9,0.3l0,0.4c-0.3,0.4-0.8-0.3-1.3-0.3c0-0.2,0.2-0.1,0.2,0c-0.6-1-1.2,0.7-1.7,0c-0.1,0.2-0.2,0.1-0.3,0
						c0,0,0,0,0,0c0,0,0,0-0.1,0c-0.1-0.1-0.1-0.2-0.2-0.2c0.1,0.1,0.1,0.2,0.2,0.2c-0.1,0-0.3,0.1-0.4,0.2L56,15c0,0,0,0,0,0
						c-0.1-0.2-0.1,0.2,0,0.6c-0.1,0.1-0.1,0.2-0.2,0.3c-0.1-0.8-0.4,0.3-0.5-0.6c-0.1,0.4-0.7,0.3-0.8,1.2c0-0.1,0-0.2,0-0.2
						c-0.2-0.1-0.3-0.2-0.5,0l-0.1-0.6l-0.4,0.8c-0.2-0.4-0.3-0.6-0.1-1.1c-0.5,0.7-0.4,0.3-0.9,1l0-0.4c-0.2,0-0.4,0.5-0.5,0.2
						c-0.4-0.8-1.8-0.1-2.7-0.8c0.2,1.2-0.4-0.5-0.5,0.4c-0.1-0.3-0.2-0.4,0-0.7c-0.5,0.3-0.7-0.4-1,0.3c-0.1-0.3,0.1-0.4,0.1-0.6
						c0,0.1-0.1,0.2-0.2,0.1c0-0.2,0.1-0.2,0.1-0.4c-0.5,0-0.5,0.9-0.6,1.7c-0.2-0.4-0.4-0.3-0.5,0.2c-0.1-0.3-0.2-0.5,0.1-0.6
						c-0.2,0-1-0.4-1,0.3c-0.1-0.2-0.2,0-0.3,0c-0.4,0-0.4-0.1-0.8,0l0.1,0.1c-0.1,0.8-0.3,0.2-0.6,0.3l0-0.1
						c-0.7-0.6-0.3,0.3-1-0.4l0,0.5c-0.1,1-0.6-0.6-1-0.2l0.1,0.3c-0.2,0.4-0.6-1.4-0.8-1.5c0-0.1,0.1-0.1,0.1-0.2
						c-0.6-0.6-0.1,0.6-0.5,0.8c-0.1-0.3,0.1-0.9-0.2-0.9c-0.1-0.3-0.8,1.1-1.2,0.5c0.1,0.3,0.2,0.5,0,0.7c-0.3,0.1-0.8-1-1.1-0.2
						c0-0.1-0.1-0.1-0.1-0.2c-0.2,0.2-0.7,0.4-0.9,0.8c-0.2-1.7-1.4,0.8-1.4-0.7l-0.7,0.1l0-0.2c-0.4-0.1-0.6,0.3-0.8,0.6
						c-0.1-0.1,0-0.2,0-0.3c-0.7-0.3-0.7-0.2-1.3,0.5l-0.1-0.5c-0.1,0.3-0.9-0.8-1.6-0.2c0-0.1,0-0.2,0.1-0.2
						c-0.7,0.6-1.7-1.4-2,0.4l-0.5,0.4c0.6,0.1-0.1,0.8,0.2,1.1c-0.2,0.1-0.6-0.5-0.3-0.6l0,0.1c0.1-0.9-0.8-0.3-0.7-1
						c-1.2,0-2.4-0.5-3.5-0.5l0.1,0.7l-0.4,0c-0.1-0.2-0.1-0.6,0.1-0.5c-0.1-0.4-0.5,0.3-0.5,0.5c-0.6-0.3,0.2-0.9,0-0.9l-0.2,0.1
						l0.1,0.1c-0.2,0.3-0.2,0.6-0.5,0.6c-0.2-0.1-0.1-0.5-0.2-0.5c0-0.1,0-0.1-0.1,0l-0.5-0.1l0.2,0.6c-0.2,0.3-0.5,0-0.2,0.6
						c-0.3-1-1.9-0.4-2.1-0.7c-0.3,0.4-0.6,0.4-1,0.4c0.1,0.1,0.1,0.8-0.2,0.7c0.1-1.3-0.6-0.6-0.9-1.5c0.2,0.6-0.9,0.2-0.6,1.1
						c-0.3-0.1,0-0.5-0.2-0.8c-0.6,0.5-1.4-0.3-2.2-0.2c0,0.2,0.1,0.4,0,0.7l-0.4-0.9c-0.2,0.1-0.1,1-0.4,0.4c0,0.1,0.1,0.4,0,0.4
						c-1.6-0.9-3.2,0.7-4.8-0.9c0.2,0.3,0.1,0.4-0.1,0.4c0.1,0.1,0,0.4,0,0.7l-0.7-0.7c-0.1,0.7-0.7,0-0.8,0.7l0.2-0.1
						c-0.3,0.7,0.4,1.7,0.4,2.6c0.3-0.8,0.8,1.3,1.3,0c0.1,0.2-0.1,0.3,0,0.5c0.1-0.4,0.3-0.5,0.6-0.3l0,0.1
						c0.8-0.1,1.2,0.3,2.1,0.6l-0.1-0.5c0.2,0.1,0.2,0.2,0.3,0.3c0.2-0.7-0.6,0-0.3-0.8c0.3,1,1.4,0,1.6,1.1c0.3,0-0.1-0.5,0.2-0.5
						l0.1,0.3l0.1-0.4c0.2,0.1,0.3,0.4,0.3,0.7c0,0-0.1,0.1-0.2,0.1c0.3,0.3,0.7-0.1,0.8,0L16,19.8c0.8-0.3,1.8,0.1,2.6-0.5
						l-0.1-0.2c0.6-0.4,0.5,0.2,1.2,0.1l0,0.1c0.1-0.2,0.3-0.3,0.5-0.3c-0.2,0.3,0.3,0.5,0.1,0.8c0.7-0.4,0.3-0.3,0.8-1.2l0.1,0.4
						c0.1-0.3,0.2-0.5,0.5-0.6c-0.3,0.3,0.2,0.6-0.1,1c0.7,0.8,1-0.8,1.4,0.4c0.3-1-0.6-0.6-0.4-0.8c-0.2-0.3,0.3-0.8,0.5-0.7
						c0.2,0,0.4,1.3,0.9,1.3c-0.1,0-0.1,0.1-0.1,0.1c0.2,0.3,0.4-0.4,0.7,0.1c0.1-0.6,0.3,0,0.4-0.8l-0.5,0.2
						c0.3-0.2,0.6-1.1,1.1-0.7c0,0.2-0.2,0.4-0.3,0.5c0.1,0.2,0.3-0.2,0.4,0.1c0,0.8-0.6,0.2-0.9,0.8c0.2,0.3,0.6-0.6,0.4,0.3
						c0.2-1.1,0.6,0.1,0.9-0.7l0,0.5c0.1-0.1,0.2-0.3,0.3-0.3l-0.2,0.6c0.3-0.5,0.6,0.5,0.9,0.2c-0.6,0-0.1-0.6-0.4-0.9
						c0.8-0.6,0.4,1.2,1.3,1c-0.1,0.1-0.4-0.3-0.3-0.5c0.2,0.1,0.4,0.3,0.5,0.5c0.6-0.1-0.1-0.5,0.2-0.8c0.2,0.6,0.3-0.2,0.5-0.4
						l0,0.5c0.7,0.3,0.2-1,0.8-0.6l-0.2,0.7l0.3-0.2l-0.1,0.5c0.3-0.4,0.4-0.3,0.8-0.1c-0.1-0.3,0-0.9,0.3-0.9
						c0.2,0.3-0.1,0.5,0.3,0.4c-0.1,0.3-0.2,0.7-0.4,0.2c0,0.2-0.1,0.3-0.1,0.5c0.2,0.3,0.5,0.1,0.7,0.1c-0.1,0-0.1,0-0.2-0.1
						l0.6-0.7c0.1,0.2,0,0.3-0.1,0.5c0.1-0.1,0.2-0.3,0.4-0.3c0,0.4,0,0.8-0.3,1l0.6-0.4c0,0.2,0.3,0.5,0.2,0.6
						c0.3,0.2,0.8-0.8,1.2-0.5c0-0.1,0.1-0.1,0.2-0.2c0.4,0.1,0.7,0.6,1.2,0l0.3,0.7c0.4-0.2-0.4-0.9,0.2-1.2
						c0.4-0.2,0.2,0.6,0.3,0.8c0.2-0.4,0.6-1.1,1-0.5C36.6,20.1,36.5,20,36.4,20z M40.8,19.7c-0.1,0.1-0.3,0.4-0.3,0.1
						C40.6,19.3,40.7,19.6,40.8,19.7z M47.6,18.6c-0.1,0.2-0.2,0.1-0.3-0.1C47.4,18.4,47.5,18.4,47.6,18.6z M66.5,15.2
						C66.5,15.2,66.5,15.2,66.5,15.2C66.3,15,66.4,15.1,66.5,15.2z M66.9,15.4c0-0.1,0-0.1,0-0.2c0,0.1-0.1,0.1-0.2,0.1
						C66.7,15.4,66.8,15.5,66.9,15.4z M23.9,15.6l0.1,0.1C23.8,15.9,23.9,15.7,23.9,15.6z"/>
					<path d="M46.8,19.2c0-0.1,0-0.2,0-0.3C46.8,19,46.8,19.1,46.8,19.2z"/>
					<path d="M33.6,20.3C33.6,20.3,33.6,20.3,33.6,20.3C33.6,20.3,33.6,20.3,33.6,20.3L33.6,20.3z"/>
					<path d="M60.7,19.5c-0.1-0.1-0.1-0.2-0.2-0.2C60.5,19.4,60.6,19.5,60.7,19.5z"/>
					<path d="M69,14.6l-0.3,0.1c0.1,0,0.2,0.1,0.2,0.2C69,14.8,68.9,14.6,69,14.6z"/>
					<path d="M71.2,17.6c0-0.1,0.1,0,0.1-0.1l0-0.2C71.2,17.3,71.1,17.5,71.2,17.6z"/>
					<path d="M69.3,16.2c0,0.4,0.2,0.3,0.4,0.2c0,0,0,0,0,0C69.6,15.8,69.4,16,69.3,16.2z"/>
					<path d="M69.7,16.4c0.1,0,0.1,0,0.2,0C69.8,16.1,69.8,16.3,69.7,16.4z"/>
					<path d="M67.4,15.1c0.1,0.1,0.1-0.5,0.1-0.4C67.6,14.3,66.9,15.4,67.4,15.1z"/>
					<polygon points="69.4,17.5 69.3,17 69.2,17.4 					"/>
					<path d="M68,17.2l0.3,0.1c0-0.1,0-0.1,0.1-0.2C68.2,17.1,68,17,68,17.2z"/>
					<path d="M68.3,17.1c0.1,0,0.2,0,0.2-0.1C68.5,17.1,68.4,17.1,68.3,17.1z"/>
					<polygon points="69,17.7 68.9,17.6 68.7,17.5 					"/>
					<path d="M64.9,17.1l-0.3,0.1c0,0.2,0.1,0.3,0.2,0.2C64.8,17.3,64.9,17.2,64.9,17.1z"/>
					<path d="M65.8,18.4c-0.1-0.1-0.1-0.2-0.1-0.4l0,0.6L65.8,18.4z"/>
					<path d="M64.9,18.6c0,0.2-0.5,0.5-0.1,0.5C64.9,18.9,65.2,18.7,64.9,18.6z"/>
					<polygon points="60.2,17.8 60.3,17.8 60.3,16.8 					"/>
					<path d="M56.1,20.2c0.4,0.2,0.1-0.6,0.4-0.3c0.1-0.2-0.3-0.2-0.2-0.5C56.1,19.7,56,19.6,56.1,20.2z"/>
					<path d="M56.3,19.5c0,0,0.1-0.1,0.1-0.2C56.3,19.4,56.3,19.4,56.3,19.5z"/>
					<polygon points="9.4,15.1 9.1,14.9 9.3,15.2 					"/>
					<path d="M8.9,15.8l-0.1-0.6l-0.1,0.6C8.7,15.8,8.9,15.7,8.9,15.8z"/>
					<path d="M41.5,21l0-0.2c0-0.2-0.1-0.2-0.2-0.2L41.5,21z"/>
					<polygon points="38.3,20.6 38.3,20.6 38.2,20 					"/>
					<path d="M35.5,21.3c0.1,0,0.2-0.1,0.4-0.1C35.7,21.3,35.5,20.6,35.5,21.3z"/>
				</g>
			</g>
		</g>
	</g>
</g>
</svg>
